<?xml version="1.0" encoding="utf-8"?>
<!-- Generator: Adobe Illustrator 22.0.0, SVG Export Plug-In . SVG Version: 6.00 Build 0)  -->
<svg version="1.1" id="Layer_1" xmlns="http://www.w3.org/2000/svg" xmlns:xlink="http://www.w3.org/1999/xlink" x="0px" y="0px"
	 viewBox="0 0 264 280" style="enable-background:new 0 0 264 280;" xml:space="preserve">
<style type="text/css">
	.st0{fill:#E6E6E6;}
	.st1{font-family:'MyriadPro-Regular';}
	.st2{font-size:5.3474px;}
	.st3{fill:#EFEF7B;}
	.st4{fill:#29ABE2;}
	.st5{fill:#C12121;}
	.st6{fill:#0071BC;}
</style>
<desc>Created with getavataaars.com</desc>
<g id="Circle-Background">
	<circle class="st0" cx="132" cy="140" r="120"/>
</g>
<g id="Top">
</g>
<g>
	<text transform="matrix(1 0 0 1 78.5836 134.989)" class="st1 st2">t</text>
	<g>
		<g id="XMLID_18188_">
			<g id="XMLID_18334_">
				<path id="XMLID_18335_" class="st3" d="M146.6,66.3c-4.5,1.4-9.1,2.8-13.6,4.1c-1.3,0.4-0.7,2.4,0.5,2c4.5-1.4,9.1-2.8,13.6-4.1
					C148.4,67.9,147.9,65.9,146.6,66.3L146.6,66.3z"/>
			</g>
			<g id="XMLID_18332_">
				<path id="XMLID_18333_" class="st3" d="M146.7,68.2c-0.9,10.6-1.4,21.3-1.4,31.9c0,1.3,2,1.3,2,0c0-10.7,0.5-21.3,1.4-31.9
					C148.9,66.9,146.8,66.9,146.7,68.2L146.7,68.2z"/>
			</g>
			<g id="XMLID_18330_">
				<path id="XMLID_18331_" class="st3" d="M148,101c7.3-12.1,16.3-22.9,27-32.1c1-0.9-0.5-2.3-1.4-1.4c-10.8,9.3-20,20.2-27.3,32.5
					C145.6,101.1,147.4,102.2,148,101L148,101z"/>
			</g>
			<g id="XMLID_18328_">
				<path id="XMLID_18329_" class="st3" d="M171.8,70c4.8,2.3,9.6,4.7,14.5,7c1.2,0.6,2.2-1.2,1-1.8c-4.8-2.3-9.6-4.7-14.5-7
					C171.7,67.7,170.6,69.4,171.8,70L171.8,70z"/>
			</g>
			<g id="XMLID_18326_">
				<path id="XMLID_18327_" class="st3" d="M186.7,75.7c-4.5,2.3-7.3,6.6-10.3,10.6c-4.2,5.6-8.3,11.2-12.5,16.8
					c-0.8,1.1,1,2.1,1.8,1c3.5-4.7,7-9.5,10.5-14.2c3.3-4.5,6.4-9.8,11.5-12.5C188.9,76.9,187.9,75.1,186.7,75.7L186.7,75.7z"/>
			</g>
			<g id="XMLID_18324_">
				<path id="XMLID_18325_" class="st3" d="M163.7,105c4.1,6.6,9.8,11.8,15.2,17.2c6.2,6.2,10.6,13.3,15.3,20.6
					c0.7,1.1,2.5,0.1,1.8-1c-4.2-6.7-8.2-13.4-13.8-19.2c-5.8-6.1-12.3-11.5-16.7-18.7C164.7,102.8,163,103.9,163.7,105L163.7,105z"
					/>
			</g>
			<g id="XMLID_18322_">
				<path id="XMLID_18323_" class="st3" d="M153.7,118.3c5.5,8.1,11.7,16.2,18.7,23c6.2,6,16.4,2.9,24.1,1.6c1.3-0.2,0.7-2.2-0.5-2
					c-4.5,0.8-9.2,1.5-13.8,1.7c-5.2,0.2-7.8-2.2-11.1-5.7c-5.7-6.1-10.9-12.7-15.6-19.6C154.7,116.2,152.9,117.2,153.7,118.3
					L153.7,118.3z"/>
			</g>
			<g id="XMLID_18320_">
				<path id="XMLID_18321_" class="st3" d="M131.9,69.2c-1.1,25.8-2.3,51.6-3.4,77.3c-0.1,1.3,2,1.3,2,0c1.1-25.8,2.3-51.6,3.4-77.3
					C134,67.9,132,67.9,131.9,69.2L131.9,69.2z"/>
			</g>
			<g id="XMLID_18318_">
				<path id="XMLID_18319_" class="st3" d="M128.4,146.7c6.5-0.2,13-0.3,19.5-0.1c1.3,0,1.3-2,0-2c-6.5-0.2-13-0.1-19.5,0.1
					C127.1,144.7,127,146.8,128.4,146.7L128.4,146.7z"/>
			</g>
			<g id="XMLID_18316_">
				<path id="XMLID_18317_" class="st3" d="M145.8,123.6c0,7.5,0,15,0,22.5c0,1.3,2,1.3,2,0c0-7.5,0-15,0-22.5
					C147.9,122.3,145.8,122.3,145.8,123.6L145.8,123.6z"/>
			</g>
			<g id="XMLID_18314_">
				<path id="XMLID_18315_" class="st3" d="M147.1,125.8c2.6-2.7,5.3-5.4,7.9-8.1c0.9-0.9-0.5-2.4-1.4-1.4c-2.6,2.7-5.3,5.4-7.9,8.1
					C144.7,125.3,146.2,126.8,147.1,125.8L147.1,125.8z"/>
			</g>
			<g id="XMLID_18312_">
				<path id="XMLID_18313_" class="st3" d="M128.9,143c-1.8,3-3.6,6-5.5,9c-0.7,1.1,1.1,2.2,1.8,1c1.8-3,3.6-6,5.5-9
					C131.4,142.9,129.6,141.9,128.9,143L128.9,143z"/>
			</g>
			<g id="XMLID_18310_">
				<path id="XMLID_18311_" class="st3" d="M122.2,70.2c0.1,27.6,0.2,55.2,0.4,82.8c0,1.3,2.1,1.3,2,0c-0.1-27.6-0.2-55.2-0.4-82.8
					C124.3,68.9,122.2,68.9,122.2,70.2L122.2,70.2z"/>
			</g>
			<g id="XMLID_18308_">
				<path id="XMLID_18309_" class="st3" d="M123.2,74.2c3.8-1.2,7.7-2.1,11.7-2.6c1.3-0.2,1.3-2.2,0-2c-4.2,0.5-8.2,1.4-12.2,2.6
					C121.4,72.6,121.9,74.6,123.2,74.2L123.2,74.2z"/>
			</g>
			<g id="XMLID_18306_">
				<path id="XMLID_18307_" class="st3" d="M146.3,145.4c-1.5,2.3-3.2,4.5-5,6.6c-0.8,1,0.6,2.5,1.4,1.4c1.9-2.2,3.6-4.6,5.3-7
					C148.8,145.4,147,144.3,146.3,145.4L146.3,145.4z"/>
			</g>
			<g id="XMLID_18304_">
				<path id="XMLID_18305_" class="st3" d="M123.9,154c6.1-0.3,12.2-0.8,18.3-1.7c1.3-0.2,0.7-2.2-0.5-2c-5.9,0.8-11.8,1.4-17.7,1.6
					C122.6,152,122.6,154,123.9,154L123.9,154z"/>
			</g>
			<g id="XMLID_18302_">
				<path id="XMLID_18303_" class="st3" d="M194.2,142.9c-2.6,3.4-5.1,6.8-7.7,10.2c-0.8,1.1,1,2.1,1.8,1c2.6-3.4,5.1-6.8,7.7-10.2
					C196.7,142.9,195,141.9,194.2,142.9L194.2,142.9z"/>
			</g>
			<g id="XMLID_18300_">
				<path id="XMLID_18301_" class="st3" d="M172.6,142.4c-2,3.4-4.1,6.8-6.1,10.2c-0.4,0.6,0.1,1.6,0.9,1.5c6.7-0.6,13.3-1.2,20-1.8
					c1.3-0.1,1.3-2.2,0-2c-6.7,0.6-13.3,1.2-20,1.8c0.3,0.5,0.6,1,0.9,1.5c2-3.4,4.1-6.8,6.1-10.2
					C175.1,142.3,173.3,141.2,172.6,142.4L172.6,142.4z"/>
			</g>
			<g id="XMLID_18298_">
				<path id="XMLID_18299_" class="st3" d="M146.5,125.9c7.5,9.2,15,18.4,22.5,27.6c0.6,0.7,1.7,0.1,1.7-0.7c0-0.4,0-0.8,0-1.2
					c0-1.3-2-1.3-2,0c0,0.4,0,0.8,0,1.2c0.6-0.2,1.2-0.5,1.7-0.7c-7.5-9.2-15-18.4-22.5-27.6C147.1,123.4,145.7,124.9,146.5,125.9
					L146.5,125.9z"/>
			</g>
			<g id="XMLID_18296_">
				<path id="XMLID_18297_" class="st3" d="M125.8,72.9c1,12.3,0.7,24.6,0.8,36.9c0,5.6,0.2,11.3,0.6,16.9c0.4,6,1.7,12,1.4,18
					c0,0.7,1,0.7,1,0c0.3-5.8-0.9-11.5-1.3-17.3c-0.4-5.9-0.6-11.8-0.6-17.7c-0.1-12.3,0.2-24.6-0.8-36.9
					C126.7,72.3,125.7,72.3,125.8,72.9L125.8,72.9z"/>
			</g>
			<g id="XMLID_18294_">
				<path id="XMLID_18295_" class="st3" d="M129.1,71.7c1.1,14,1.2,28.1,0.4,42.2c0,0.7,1,0.7,1,0c0.8-14.1,0.7-28.1-0.4-42.2
					C130.1,71,129.1,71,129.1,71.7L129.1,71.7z"/>
			</g>
			<g id="XMLID_18292_">
				<path id="XMLID_18293_" class="st3" d="M125.2,77.1c2.4-2.1,4.9-3.9,7.6-5.5c0.6-0.3,0-1.2-0.5-0.9c-2.8,1.7-5.4,3.6-7.9,5.7
					C124,76.9,124.7,77.6,125.2,77.1L125.2,77.1z"/>
			</g>
			<g id="XMLID_18290_">
				<path id="XMLID_18291_" class="st3" d="M124.5,81.2c2.7-2.4,5.7-4.4,8.9-6.1c0.6-0.3,0.1-1.2-0.5-0.9c-3.3,1.7-6.4,3.8-9.1,6.2
					C123.2,80.9,124,81.7,124.5,81.2L124.5,81.2z"/>
			</g>
			<g id="XMLID_18288_">
				<path id="XMLID_18289_" class="st3" d="M125.3,84c0.7,0,0.5,0.1,1-0.3c0.3-0.2,0.5-0.5,0.8-0.7c0.6-0.6,1.2-1.1,1.8-1.6
					c1.3-1.1,2.6-2,4-2.9c0.6-0.4,0-1.2-0.5-0.9c-2.2,1.4-4.3,3-6.1,4.9c-0.3,0.3-2.7,2.5-0.9,2.6C126,85,126,84,125.3,84L125.3,84z
					"/>
			</g>
			<g id="XMLID_18286_">
				<path id="XMLID_18287_" class="st3" d="M124.9,88.5c1.7-1.8,3.5-3.4,5.5-4.8c0.5-0.4,0-1.3-0.5-0.9c-2.1,1.4-4,3.1-5.7,4.9
					C123.7,88.3,124.4,89,124.9,88.5L124.9,88.5z"/>
			</g>
			<g id="XMLID_18284_">
				<path id="XMLID_18285_" class="st3" d="M124.2,93.3c1.5-1.7,3.2-3.1,5-4.4c0.5-0.4,0-1.3-0.5-0.9c-1.9,1.4-3.6,2.9-5.2,4.6
					C123,93,123.7,93.8,124.2,93.3L124.2,93.3z"/>
			</g>
			<g id="XMLID_18282_">
				<path id="XMLID_18283_" class="st3" d="M123.7,98c2.5-2.6,5.4-4.8,8.6-6.6c0.6-0.3,0.1-1.2-0.5-0.9c-3.3,1.8-6.2,4-8.8,6.7
					C122.5,97.8,123.2,98.5,123.7,98L123.7,98z"/>
			</g>
			<g id="XMLID_18280_">
				<path id="XMLID_18281_" class="st3" d="M124.5,101.7c2.6-1.9,5.2-3.8,7.8-5.7c0.5-0.4,0-1.3-0.5-0.9c-2.7,1.8-5.3,3.7-7.8,5.7
					C123.5,101.2,124,102.1,124.5,101.7L124.5,101.7z"/>
			</g>
			<g id="XMLID_18278_">
				<path id="XMLID_18279_" class="st3" d="M123.7,107.5c2.1-2.3,4.4-4.2,7-5.9c0.6-0.4,0-1.2-0.5-0.9c-2.7,1.7-5.1,3.7-7.2,6
					C122.6,107.2,123.3,107.9,123.7,107.5L123.7,107.5z"/>
			</g>
			<g id="XMLID_18276_">
				<path id="XMLID_18277_" class="st3" d="M123,113.2c2.5-2.6,5.2-5.1,8.1-7.2c0.5-0.4,0-1.3-0.5-0.9c-3,2.2-5.8,4.6-8.3,7.4
					C121.9,113,122.6,113.7,123,113.2L123,113.2z"/>
			</g>
			<g id="XMLID_18274_">
				<path id="XMLID_18275_" class="st3" d="M123.5,116.5c2.1-2.2,4.4-4.3,6.9-6c0.5-0.4,0-1.3-0.5-0.9c-2.6,1.8-4.9,3.9-7.1,6.2
					C122.3,116.2,123,116.9,123.5,116.5L123.5,116.5z"/>
			</g>
			<g id="XMLID_18272_">
				<path id="XMLID_18273_" class="st3" d="M124.3,119.7c1.5-2,3.3-3.8,5.3-5.3c0.5-0.4,0-1.3-0.5-0.9c-2.2,1.6-4.1,3.5-5.7,5.7
					C123,119.7,123.9,120.2,124.3,119.7L124.3,119.7z"/>
			</g>
			<g id="XMLID_18270_">
				<path id="XMLID_18271_" class="st3" d="M124.4,124.2c1.7-2.3,3.8-4.4,6-6.1c0.5-0.4-0.2-1.1-0.7-0.7c-2.3,1.8-4.4,4-6.2,6.3
					C123.1,124.2,124,124.7,124.4,124.2L124.4,124.2z"/>
			</g>
			<g id="XMLID_18268_">
				<path id="XMLID_18269_" class="st3" d="M124.2,129.1c1.8-2.1,3.8-4.1,5.9-6c0.5-0.4-0.2-1.2-0.7-0.7c-2.1,1.8-4.1,3.8-5.9,6
					C123.1,128.9,123.8,129.6,124.2,129.1L124.2,129.1z"/>
			</g>
			<g id="XMLID_18266_">
				<path id="XMLID_18267_" class="st3" d="M124.4,133.2c1.2-0.5,2.1-1.8,3-2.8c1.1-1.2,2.2-2.4,3.2-3.6c0.4-0.5-0.3-1.2-0.7-0.7
					c-1,1.1-1.9,2.1-2.9,3.2c-0.9,1-1.8,2.5-3.1,3C123.3,132.6,123.8,133.5,124.4,133.2L124.4,133.2z"/>
			</g>
			<g id="XMLID_18264_">
				<path id="XMLID_18265_" class="st3" d="M124.8,137.3c1.4-2.2,3-4.3,4.8-6.3c0.4-0.5-0.3-1.2-0.7-0.7c-1.8,2-3.5,4.2-4.9,6.5
					C123.6,137.4,124.5,137.9,124.8,137.3L124.8,137.3z"/>
			</g>
			<g id="XMLID_18262_">
				<path id="XMLID_18263_" class="st3" d="M124.9,141.2c1.5-1.9,2.9-3.7,4.4-5.6c0.4-0.5-0.3-1.2-0.7-0.7c-1.5,1.9-2.9,3.7-4.4,5.6
					C123.8,141,124.5,141.7,124.9,141.2L124.9,141.2z"/>
			</g>
			<g id="XMLID_18260_">
				<path id="XMLID_18261_" class="st3" d="M123.9,147.2c1.8-2.7,3.8-5.2,5.9-7.7c0.4-0.5-0.3-1.2-0.7-0.7c-2.2,2.5-4.2,5.2-6.1,7.9
					C122.6,147.2,123.5,147.7,123.9,147.2L123.9,147.2z"/>
			</g>
			<g id="XMLID_18258_">
				<path id="XMLID_18259_" class="st3" d="M126.5,149.6c6.7,0.1,13.4,0.1,20.1,0c0.7,0,0.7-1,0-1c-6.7,0.1-13.4,0.1-20.1,0
					C125.8,148.5,125.8,149.6,126.5,149.6L126.5,149.6z"/>
			</g>
			<g id="XMLID_18256_">
				<path id="XMLID_18257_" class="st3" d="M126.9,151.3c1.9-1.8,3.7-3.7,5.6-5.5c0.5-0.5-0.3-1.2-0.7-0.7c-1.9,1.8-3.7,3.7-5.6,5.5
					C125.7,151.1,126.5,151.8,126.9,151.3L126.9,151.3z"/>
			</g>
			<g id="XMLID_18254_">
				<path id="XMLID_18255_" class="st3" d="M130.5,152c1.4-1.6,2.8-3.2,4.4-4.6c0.5-0.5-0.2-1.2-0.7-0.7c-1.5,1.5-3,3-4.4,4.6
					C129.3,151.8,130.1,152.5,130.5,152L130.5,152z"/>
			</g>
			<g id="XMLID_18252_">
				<path id="XMLID_18253_" class="st3" d="M134.3,151.7c1.5-1.6,2.9-3.2,4.4-4.8c0.4-0.5-0.3-1.2-0.7-0.7c-1.5,1.6-2.9,3.2-4.4,4.8
					C133.1,151.5,133.9,152.2,134.3,151.7L134.3,151.7z"/>
			</g>
			<g id="XMLID_18250_">
				<path id="XMLID_18251_" class="st3" d="M138.8,150.3c1.2-1.3,2.5-2.5,3.9-3.7c0.5-0.4-0.2-1.2-0.7-0.7c-1.3,1.2-2.6,2.4-3.9,3.7
					C137.7,150,138.4,150.7,138.8,150.3L138.8,150.3z"/>
			</g>
			<g id="XMLID_18248_">
				<path id="XMLID_18249_" class="st3" d="M142.2,150.9c0.5-0.9,1.1-1.8,1.9-2.5c0.5-0.5-0.3-1.2-0.7-0.7c-0.8,0.8-1.5,1.7-2.1,2.7
					C141,151,141.9,151.5,142.2,150.9L142.2,150.9z"/>
			</g>
			<g id="XMLID_18246_">
				<path id="XMLID_18247_" class="st3" d="M148.7,122.4c7.9,9.5,16.1,18.9,24.4,28c0.4,0.5,1.2-0.2,0.7-0.7
					c-8.3-9.1-16.5-18.5-24.4-28C149,121.2,148.2,121.9,148.7,122.4L148.7,122.4z"/>
			</g>
			<g id="XMLID_18244_">
				<path id="XMLID_18245_" class="st3" d="M151.7,120.3c6,8.8,12.7,17,20.2,24.6c0.5,0.5,1.2-0.3,0.7-0.7c-7.4-7.5-14-15.7-20-24.4
					C152.2,119.2,151.4,119.7,151.7,120.3L151.7,120.3z"/>
			</g>
			<g id="XMLID_18242_">
				<path id="XMLID_18243_" class="st3" d="M151.2,120.7c-0.3,2.4-0.8,4.8-1.2,7.1c-0.1,0.6,0.9,0.9,1,0.3c0.5-2.4,0.9-4.7,1.2-7.1
					C152.3,120.3,151.3,120.1,151.2,120.7L151.2,120.7z"/>
			</g>
			<g id="XMLID_18240_">
				<path id="XMLID_18241_" class="st3" d="M154.4,118.9c-0.7,3.7-1.2,7.5-1.7,11.2c-0.1,0.6,0.9,0.6,1,0c0.5-3.7,1.1-7.3,1.7-11
					C155.5,118.6,154.5,118.3,154.4,118.9L154.4,118.9z"/>
			</g>
			<g id="XMLID_18238_">
				<path id="XMLID_18239_" class="st3" d="M157.3,121c-0.6,4.5-1.2,9-1.9,13.5c-0.1,0.6,0.9,0.9,1,0.3c0.7-4.5,1.3-9,1.9-13.5
					C158.4,120.6,157.4,120.3,157.3,121L157.3,121z"/>
			</g>
			<g id="XMLID_18236_">
				<path id="XMLID_18237_" class="st3" d="M158.9,125.9c0.1,4.3-0.9,8.7-1.5,13c-0.1,0.7,0.9,0.6,1,0c0.5-4.2,1.5-8.7,1.5-13
					C159.9,125.3,158.9,125.3,158.9,125.9L158.9,125.9z"/>
			</g>
			<g id="XMLID_18234_">
				<path id="XMLID_18235_" class="st3" d="M160.7,129.3c-0.4,4-0.8,8-1.2,12c-0.1,0.7,1,0.6,1,0c0.4-4,0.8-8,1.2-12
					C161.8,128.7,160.8,128.7,160.7,129.3L160.7,129.3z"/>
			</g>
			<g id="XMLID_18232_">
				<path id="XMLID_18233_" class="st3" d="M163,131.3c-0.3,4.2-0.8,8.3-1.4,12.4c-0.1,0.6,0.9,0.9,1,0.3c0.7-4.2,1.1-8.5,1.4-12.7
					C164.1,130.7,163,130.7,163,131.3L163,131.3z"/>
			</g>
			<g id="XMLID_18230_">
				<path id="XMLID_18231_" class="st3" d="M165.6,133.9c-0.7,3.8-1.2,7.5-1.7,11.3c-0.1,0.7,0.9,0.6,1,0c0.4-3.7,1-7.4,1.6-11.1
					C166.7,133.6,165.8,133.3,165.6,133.9L165.6,133.9z"/>
			</g>
			<g id="XMLID_18228_">
				<path id="XMLID_18229_" class="st3" d="M168.8,137.2c-0.4,2.9-0.8,5.7-1.2,8.6c-0.1,0.6,0.9,0.9,1,0.3c0.5-2.9,0.9-5.9,1.3-8.9
					C169.9,136.5,168.9,136.5,168.8,137.2L168.8,137.2z"/>
			</g>
			<g id="XMLID_18226_">
				<path id="XMLID_18227_" class="st3" d="M171,140.2c-0.3,3.3-0.8,6.5-1.6,9.7c-0.2,0.6,0.8,0.9,1,0.3c0.8-3.3,1.4-6.6,1.6-10
					C172.1,139.5,171.1,139.5,171,140.2L171,140.2z"/>
			</g>
			<g id="XMLID_18224_">
				<path id="XMLID_18225_" class="st3" d="M170.6,147.3c7,0.4,14.1,0.8,21.1,1.1c0.7,0,0.7-1,0-1c-7-0.4-14.1-0.8-21.1-1.1
					C169.9,146.2,169.9,147.2,170.6,147.3L170.6,147.3z"/>
			</g>
			<g id="XMLID_18222_">
				<path id="XMLID_18223_" class="st3" d="M171.8,149.3c6,0.6,12,1.1,18,1.7c0.7,0.1,0.7-1,0-1c-6-0.6-12-1.1-18-1.7
					C171.1,148.2,171.1,149.2,171.8,149.3L171.8,149.3z"/>
			</g>
			<g id="XMLID_18220_">
				<path id="XMLID_18221_" class="st3" d="M178.3,144c-2.2,2-4.3,4.1-6.5,6.1c-0.5,0.5,0.2,1.2,0.7,0.7c2.2-2,4.3-4.1,6.5-6.1
					C179.5,144.3,178.8,143.6,178.3,144L178.3,144z"/>
			</g>
			<g id="XMLID_18218_">
				<path id="XMLID_18219_" class="st3" d="M181.6,144.5c-2.3,2.1-4.5,4.3-6.8,6.4c-0.5,0.5,0.2,1.2,0.7,0.7
					c2.3-2.1,4.5-4.3,6.8-6.4C182.8,144.8,182.1,144.1,181.6,144.5L181.6,144.5z"/>
			</g>
			<g id="XMLID_18216_">
				<path id="XMLID_18217_" class="st3" d="M186.8,142.8c-1.8,2.6-3.8,5.1-5.9,7.5c-0.4,0.5,0.3,1.2,0.7,0.7c2.2-2.4,4.2-5,6.1-7.7
					C188.1,142.8,187.2,142.2,186.8,142.8L186.8,142.8z"/>
			</g>
			<g id="XMLID_18214_">
				<path id="XMLID_18215_" class="st3" d="M188.9,143.1c-1.3,2.6-2.6,5.1-3.9,7.7c-0.3,0.6,0.6,1.1,0.9,0.5
					c1.3-2.6,2.6-5.1,3.9-7.7C190.1,143,189.2,142.5,188.9,143.1L188.9,143.1z"/>
			</g>
			<g id="XMLID_18212_">
				<path id="XMLID_18213_" class="st3" d="M173.4,67.6c-4.2,1.2-8.4,2.5-12.6,3.9c-0.6,0.2-0.4,1.2,0.3,1c4.2-1.4,8.4-2.7,12.6-3.9
					C174.3,68.4,174,67.4,173.4,67.6L173.4,67.6z"/>
			</g>
			<g id="XMLID_18210_">
				<path id="XMLID_18211_" class="st3" d="M160.4,71.3c-5,6.4-9.7,13.1-14.1,19.9c-0.4,0.6,0.5,1.1,0.9,0.5
					c4.3-6.8,9-13.4,13.9-19.7C161.5,71.5,160.8,70.7,160.4,71.3L160.4,71.3z"/>
			</g>
			<g id="XMLID_18208_">
				<path id="XMLID_18209_" class="st3" d="M163.4,71c-5.6,6.6-10.8,13.4-15.6,20.5c-0.4,0.5,0.5,1.1,0.9,0.5
					c4.8-7.1,9.9-13.8,15.5-20.3C164.6,71.2,163.8,70.5,163.4,71L163.4,71z"/>
			</g>
			<g id="XMLID_18206_">
				<path id="XMLID_18207_" class="st3" d="M164.3,70.7c-5.9,9.2-12.2,18.2-18.8,27c-0.4,0.5,0.5,1,0.9,0.5
					c6.6-8.7,12.9-17.7,18.8-27C165.5,70.6,164.6,70.1,164.3,70.7L164.3,70.7z"/>
			</g>
			<g id="XMLID_18204_">
				<path id="XMLID_18205_" class="st3" d="M149.1,86.8c0.6,1.9,1.2,3.7,1.9,5.6c0.2,0.6,1.2,0.4,1-0.3c-0.6-1.9-1.2-3.7-1.9-5.6
					C149.9,85.9,148.9,86.2,149.1,86.8L149.1,86.8z"/>
			</g>
			<g id="XMLID_18202_">
				<path id="XMLID_18203_" class="st3" d="M151,84.4c1,1.4,2,2.9,2.9,4.4c0.3,0.6,1.2,0.1,0.9-0.5c-0.9-1.5-1.9-3-2.9-4.4
					C151.5,83.4,150.6,83.9,151,84.4L151,84.4z"/>
			</g>
			<g id="XMLID_18200_">
				<path id="XMLID_18201_" class="st3" d="M153.2,82c0.8,1.2,1.7,2.2,2.9,3.1c0.5,0.4,1-0.5,0.5-0.9c-1-0.7-1.9-1.7-2.5-2.7
					C153.7,81,152.8,81.5,153.2,82L153.2,82z"/>
			</g>
			<g id="XMLID_18198_">
				<path id="XMLID_18199_" class="st3" d="M156.1,79.2c1,0.9,1.9,1.9,2.7,3c0.4,0.5,1.1-0.2,0.7-0.7c-0.8-1.1-1.7-2.1-2.7-3
					C156.3,78,155.6,78.7,156.1,79.2L156.1,79.2z"/>
			</g>
			<g id="XMLID_18196_">
				<path id="XMLID_18197_" class="st3" d="M157.8,76c1.8,1.1,3.4,2.2,5,3.6c0.5,0.4,1.2-0.3,0.7-0.7c-1.6-1.4-3.4-2.6-5.2-3.7
					C157.8,74.8,157.3,75.6,157.8,76L157.8,76z"/>
			</g>
			<g id="XMLID_18194_">
				<path id="XMLID_18195_" class="st3" d="M159.6,73.9c1.5,1.2,3,2.2,4.8,3c0.6,0.3,1.1-0.6,0.5-0.9c-1.7-0.7-3.2-1.7-4.6-2.8
					C159.8,72.7,159.1,73.5,159.6,73.9L159.6,73.9z"/>
			</g>
			<g id="XMLID_18192_">
				<path id="XMLID_18193_" class="st3" d="M162.3,71.5c1.6,0.7,3.2,1.5,4.7,2.4c0.6,0.3,1.1-0.6,0.5-0.9c-1.5-0.9-3.1-1.7-4.7-2.4
					C162.2,70.4,161.7,71.2,162.3,71.5L162.3,71.5z"/>
			</g>
			<g id="XMLID_18189_">
				<path id="XMLID_18191_" class="st3" d="M166.4,70.2c0.9,0.3,1.7,0.8,2.4,1.5c0.5,0.4,1.2-0.3,0.7-0.7c-0.8-0.8-1.8-1.4-2.8-1.8
					C166.1,69,165.8,70,166.4,70.2L166.4,70.2z"/>
			</g>
		</g>
		<g>
			<g id="XMLID_18336_">
				<g id="XMLID_18408_">
					<path id="XMLID_18409_" class="st4" d="M106.6,62c4.7-0.7,9.4-1.3,14.1-2c1.3-0.2,0.7-2.1-0.5-1.9c-4.7,0.7-9.4,1.3-14.1,2
						C104.8,60.2,105.4,62.1,106.6,62L106.6,62z"/>
				</g>
				<g id="XMLID_18406_">
					<path id="XMLID_18407_" class="st4" d="M103.8,61c-0.4,25.7-0.8,51.4-1.2,77.1c0,1.3,2,1.3,2,0c0.4-25.7,0.8-51.4,1.2-77.1
						C105.8,59.7,103.8,59.7,103.8,61L103.8,61z"/>
				</g>
				<g id="XMLID_18404_">
					<path id="XMLID_18405_" class="st4" d="M120.6,59.5c-0.4,26.7-0.8,53.3-1.2,80c0,1.3,2,1.3,2,0c0.4-26.7,0.8-53.3,1.2-80
						C122.6,58.2,120.6,58.2,120.6,59.5L120.6,59.5z"/>
				</g>
				<g id="XMLID_18402_">
					<path id="XMLID_18403_" class="st4" d="M105.9,140.5c5-0.2,10.1-0.3,15.1-0.5c1.3,0,1.3-2,0-2c-5,0.2-10.1,0.3-15.1,0.5
						C104.6,138.5,104.6,140.5,105.9,140.5L105.9,140.5z"/>
				</g>
				<g id="XMLID_18400_">
					<path id="XMLID_18401_" class="st4" d="M103.8,138.4c-2.2,2.4-4.3,4.8-6.5,7.2c-0.9,1,0.5,2.4,1.4,1.4c2.2-2.4,4.3-4.8,6.5-7.2
						C106.1,138.9,104.6,137.4,103.8,138.4L103.8,138.4z"/>
				</g>
				<g id="XMLID_18398_">
					<path id="XMLID_18399_" class="st4" d="M118.2,139c-1.7,2.4-3.3,4.8-5,7.2c-0.7,1.1,1,2.1,1.7,1c1.7-2.4,3.3-4.8,5-7.2
						C120.7,139,118.9,138,118.2,139L118.2,139z"/>
				</g>
				<g id="XMLID_18396_">
					<path id="XMLID_18397_" class="st4" d="M97.6,148.3c5.2,0,10.4,0,15.6,0c1.3,0,1.3-2,0-2c-5.2,0-10.4,0-15.6,0
						C96.3,146.3,96.3,148.3,97.6,148.3L97.6,148.3z"/>
				</g>
				<g id="XMLID_18394_">
					<path id="XMLID_18395_" class="st4" d="M104.9,60.4c-2.6,3.4-5.5,6.6-8.5,9.6c-0.9,0.9,0.5,2.3,1.4,1.4c3-3,5.9-6.2,8.5-9.6
						C107.1,60.8,105.7,59.4,104.9,60.4L104.9,60.4z"/>
				</g>
				<g id="XMLID_18392_">
					<path id="XMLID_18393_" class="st4" d="M97.4,69.3c-1.1,25.8-1.5,51.7-1.2,77.6c0,1.3,2,1.3,2,0c-0.3-25.9,0.1-51.7,1.2-77.6
						C99.5,68,97.5,68,97.4,69.3L97.4,69.3z"/>
				</g>
				<g id="XMLID_18390_">
					<path id="XMLID_18391_" class="st4" d="M99.7,69c1.2,23.3,1.2,46.7,1.4,70c0,0.6,1,0.6,1,0c-0.2-23.3-0.2-46.7-1.4-70
						C100.6,68.4,99.6,68.4,99.7,69L99.7,69z"/>
				</g>
				<g id="XMLID_18388_">
					<path id="XMLID_18389_" class="st4" d="M101,67.2c1.5,15.4,1.5,31,1.6,46.5c0,0.6,1,0.6,1,0c-0.1-15.5-0.1-31.1-1.6-46.5
						C101.9,66.5,100.9,66.5,101,67.2L101,67.2z"/>
				</g>
				<g id="XMLID_18386_">
					<path id="XMLID_18387_" class="st4" d="M99.1,73.8c2-1.5,3.9-3.1,5.9-4.6c0.5-0.4-0.2-1.1-0.7-0.7c-2,1.5-3.9,3.1-5.9,4.6
						C97.9,73.5,98.6,74.2,99.1,73.8L99.1,73.8z"/>
				</g>
				<g id="XMLID_18384_">
					<path id="XMLID_18385_" class="st4" d="M97.8,77.3c2.1-1.5,4.3-2.9,6.7-4.1c0.6-0.3,0.1-1.2-0.5-0.9c-2.3,1.2-4.6,2.5-6.7,4.1
						C96.8,76.8,97.3,77.7,97.8,77.3L97.8,77.3z"/>
				</g>
				<g id="XMLID_18382_">
					<path id="XMLID_18383_" class="st4" d="M97.6,82.2c2.5-1.8,5.1-3.5,7.7-5.1c0.5-0.3,0-1.2-0.5-0.9c-2.6,1.6-5.2,3.3-7.7,5.1
						C96.6,81.7,97.1,82.6,97.6,82.2L97.6,82.2z"/>
				</g>
				<g id="XMLID_18380_">
					<path id="XMLID_18381_" class="st4" d="M97.7,87c2.3-1.6,4.5-3.1,6.8-4.7c0.5-0.4,0-1.2-0.5-0.9c-2.3,1.6-4.5,3.1-6.8,4.7
						C96.7,86.5,97.2,87.4,97.7,87L97.7,87z"/>
				</g>
				<g id="XMLID_18378_">
					<path id="XMLID_18379_" class="st4" d="M98.4,90.2c1.8-1.4,3.6-2.8,5.4-4.2c0.5-0.4-0.2-1.1-0.7-0.7c-1.8,1.4-3.6,2.8-5.4,4.2
						C97.2,89.9,97.9,90.6,98.4,90.2L98.4,90.2z"/>
				</g>
				<g id="XMLID_18376_">
					<path id="XMLID_18377_" class="st4" d="M97.4,94.2c1.9-1.6,3.9-3.1,5.9-4.5c0.5-0.4,0-1.2-0.5-0.9c-2.1,1.5-4.1,3.1-6.1,4.7
						C96.2,93.9,96.9,94.6,97.4,94.2L97.4,94.2z"/>
				</g>
				<g id="XMLID_18374_">
					<path id="XMLID_18375_" class="st4" d="M97,97C97,96.9,97,96.9,97,97c-0.3-0.2-0.6-0.1-0.7,0.1c0,0,0,0.1,0,0.1
						c-0.1,0.3-0.1,0.7,0.3,0.7c1,0.1,1.9-1.1,2.6-1.7c1.5-1.2,3.1-2.4,4.6-3.5c0.5-0.4,0-1.2-0.5-0.9c-1.1,0.8-2.3,1.6-3.4,2.5
						c-0.5,0.4-1,0.8-1.5,1.2c-0.2,0.2-1.5,1.4-1.6,1.4c0.1,0.2,0.2,0.5,0.3,0.7c0,0,0-0.1,0-0.1c-0.2,0.1-0.5,0.1-0.7,0.2
						c0,0,0,0,0.1,0C97.1,98.1,97.6,97.3,97,97L97,97z"/>
				</g>
				<g id="XMLID_18372_">
					<path id="XMLID_18373_" class="st4" d="M97.7,101c2-1.8,4.2-3.5,6.4-5.2c0.5-0.4,0-1.2-0.5-0.9c-2.3,1.7-4.5,3.4-6.6,5.3
						C96.5,100.7,97.2,101.4,97.7,101L97.7,101z"/>
				</g>
				<g id="XMLID_18370_">
					<path id="XMLID_18371_" class="st4" d="M97.8,105.2c1.8-2,3.8-3.9,5.8-5.7c0.5-0.4-0.2-1.1-0.7-0.7c-2,1.8-3.9,3.7-5.8,5.7
						C96.6,105,97.3,105.7,97.8,105.2L97.8,105.2z"/>
				</g>
				<g id="XMLID_18368_">
					<path id="XMLID_18369_" class="st4" d="M96.4,110.3c2.5-2.9,5.2-5.5,8.2-7.8c0.5-0.4,0-1.3-0.5-0.9c-3.1,2.4-5.9,5-8.4,8
						C95.3,110.1,96,110.8,96.4,110.3L96.4,110.3z"/>
				</g>
				<g id="XMLID_18366_">
					<path id="XMLID_18367_" class="st4" d="M97.4,112.3c2.4-2.8,5.1-5.3,8.1-7.5c0.5-0.4,0-1.2-0.5-0.9c-3,2.3-5.8,4.8-8.3,7.6
						C96.3,112.1,97,112.8,97.4,112.3L97.4,112.3z"/>
				</g>
				<g id="XMLID_18364_">
					<path id="XMLID_18365_" class="st4" d="M97.6,113.6c-0.1,0.1-0.3,0.1-0.4,0.2c0.2,0.3,0.4,0.5,0.6,0.8c2-2,4.2-3.8,6.5-5.4
						c0.5-0.4,0-1.2-0.5-0.9c-2.4,1.6-4.7,3.4-6.7,5.5c-0.4,0.4,0.1,1,0.6,0.8c0.1-0.1,0.3-0.1,0.4-0.2
						C98.7,114.2,98.1,113.3,97.6,113.6L97.6,113.6z"/>
				</g>
				<g id="XMLID_18362_">
					<path id="XMLID_18363_" class="st4" d="M96.7,118.9c2.1-2.3,4.4-4.4,7-6.2c0.5-0.4,0-1.2-0.5-0.9c-2.6,1.9-5,4-7.2,6.4
						C95.6,118.6,96.3,119.3,96.7,118.9L96.7,118.9z"/>
				</g>
				<g id="XMLID_18360_">
					<path id="XMLID_18361_" class="st4" d="M98.2,121.8c1.8-2.3,3.8-4.4,6.2-6.1c0.5-0.4,0-1.3-0.5-0.9c-2.5,1.9-4.7,4-6.5,6.5
						C97,121.8,97.9,122.3,98.2,121.8L98.2,121.8z"/>
				</g>
				<g id="XMLID_18357_">
					<path id="XMLID_18358_" class="st4" d="M98.8,124.6c1.9-2.2,4-4.1,6.3-5.8c0.5-0.4,0-1.2-0.5-0.9c-2.4,1.7-4.6,3.7-6.5,6
						C97.7,124.3,98.4,125,98.8,124.6L98.8,124.6z"/>
				</g>
				<g id="XMLID_18355_">
					<path id="XMLID_18356_" class="st4" d="M97.7,128.2c1.9-2.2,4-4.2,6.4-5.8c0.5-0.4,0-1.2-0.5-0.9c-2.5,1.7-4.7,3.7-6.6,6
						C96.6,128,97.3,128.7,97.7,128.2L97.7,128.2z"/>
				</g>
				<g id="XMLID_18353_">
					<path id="XMLID_18354_" class="st4" d="M97.5,132.4c1.7-2.6,4-4.8,6.7-6.5c0.5-0.3,0-1.2-0.5-0.9c-2.8,1.8-5.2,4.1-7,6.9
						C96.3,132.5,97.1,133,97.5,132.4L97.5,132.4z"/>
				</g>
				<g id="XMLID_18351_">
					<path id="XMLID_18352_" class="st4" d="M97.9,137.6c1.8-2.6,3.9-4.8,6.4-6.8c0.5-0.4-0.2-1.1-0.7-0.7c-2.5,2-4.7,4.3-6.5,7
						C96.7,137.6,97.5,138.1,97.9,137.6L97.9,137.6z"/>
				</g>
				<g id="XMLID_18349_">
					<path id="XMLID_18350_" class="st4" d="M98.4,142.6c0.5-1.6,1.8-2.9,2.9-4.2c1-1.2,2-2.3,3-3.4c0.4-0.5-0.3-1.2-0.7-0.7
						c-1.3,1.4-2.5,2.8-3.7,4.3c-0.9,1.2-1.9,2.3-2.4,3.8C97.2,142.9,98.2,143.2,98.4,142.6L98.4,142.6z"/>
				</g>
				<g id="XMLID_18347_">
					<path id="XMLID_18348_" class="st4" d="M103.1,143.4c4.6-0.2,9.1-0.2,13.7,0.1c0.6,0,0.6-1,0-1c-4.6-0.3-9.1-0.3-13.7-0.1
						C102.4,142.5,102.4,143.5,103.1,143.4L103.1,143.4z"/>
				</g>
				<g id="XMLID_18345_">
					<path id="XMLID_18346_" class="st4" d="M102.3,145.5c4.3,0.2,8.6,0.6,12.9,1.3c0.6,0.1,0.9-0.9,0.3-1
						c-4.4-0.7-8.7-1.2-13.2-1.4C101.7,144.5,101.7,145.5,102.3,145.5L102.3,145.5z"/>
				</g>
				<g id="XMLID_18343_">
					<path id="XMLID_18344_" class="st4" d="M107.5,140.4c-1.7,2-3.5,3.8-5.5,5.6c-0.5,0.4,0.2,1.1,0.7,0.7c1.9-1.8,3.7-3.7,5.5-5.6
						C108.6,140.6,107.9,139.9,107.5,140.4L107.5,140.4z"/>
				</g>
				<g id="XMLID_18341_">
					<path id="XMLID_18342_" class="st4" d="M109.1,140.8c-1,1.9-2,3.7-3.1,5.6c-0.3,0.6,0.6,1.1,0.9,0.5c1-1.9,2-3.7,3.1-5.6
						C110.3,140.8,109.4,140.3,109.1,140.8L109.1,140.8z"/>
				</g>
				<g id="XMLID_18339_">
					<path id="XMLID_18340_" class="st4" d="M111.9,141c-1.1,1.8-2.1,3.7-3.2,5.5c-0.3,0.6,0.5,1.1,0.9,0.5c1.1-1.8,2.1-3.7,3.2-5.5
						C113.1,140.9,112.2,140.4,111.9,141L111.9,141z"/>
				</g>
				<g id="XMLID_18337_">
					<path id="XMLID_18338_" class="st4" d="M114.8,140c-1.1,2.2-2.3,4.3-3.7,6.3c-0.4,0.5,0.5,1,0.9,0.5c1.4-2,2.6-4.2,3.7-6.3
						C116,139.9,115.1,139.4,114.8,140L114.8,140z"/>
				</g>
			</g>
			<g id="XMLID_1_">
				<g id="XMLID_73_">
					<path id="XMLID_74_" class="st4" d="M67.6,58.6c-0.7-4.7-1.3-9.4-2-14.1c-0.2-1.3-2.1-0.7-1.9,0.5c0.7,4.7,1.3,9.4,2,14.1
						C65.9,60.4,67.8,59.8,67.6,58.6L67.6,58.6z"/>
				</g>
				<g id="XMLID_71_">
					<path id="XMLID_72_" class="st4" d="M66.6,61.4c25.7,0.4,51.4,0.8,77.1,1.1c1.3,0,1.3-2,0-2c-25.7-0.4-51.4-0.8-77.1-1.1
						C65.3,59.4,65.3,61.4,66.6,61.4L66.6,61.4z"/>
				</g>
				<g id="XMLID_69_">
					<path id="XMLID_70_" class="st4" d="M65.2,44.6c26.7,0.4,53.3,0.8,80,1.1c1.3,0,1.3-2,0-2c-26.7-0.4-53.3-0.8-80-1.1
						C63.9,42.6,63.9,44.6,65.2,44.6L65.2,44.6z"/>
				</g>
				<g id="XMLID_67_">
					<path id="XMLID_68_" class="st4" d="M146.1,59.3c-0.2-5-0.4-10.1-0.5-15.1c0-1.3-2-1.3-2,0c0.2,5,0.4,10.1,0.5,15.1
						C144.2,60.6,146.2,60.6,146.1,59.3L146.1,59.3z"/>
				</g>
				<g id="XMLID_65_">
					<path id="XMLID_66_" class="st4" d="M144.1,61.4c2.4,2.2,4.8,4.3,7.2,6.5c1,0.9,2.4-0.5,1.4-1.4c-2.4-2.2-4.8-4.3-7.2-6.5
						C144.5,59.1,143.1,60.5,144.1,61.4L144.1,61.4z"/>
				</g>
				<g id="XMLID_63_">
					<path id="XMLID_64_" class="st4" d="M144.7,47c2.4,1.7,4.8,3.3,7.3,5c1.1,0.7,2.1-1,1-1.7c-2.4-1.7-4.8-3.3-7.3-5
						C144.6,44.5,143.6,46.2,144.7,47L144.7,47z"/>
				</g>
				<g id="XMLID_61_">
					<path id="XMLID_62_" class="st4" d="M154,67.6c0-5.2,0-10.4,0-15.6c0-1.3-2-1.3-2,0c0,5.2,0,10.4,0,15.6
						C152,68.9,154,68.9,154,67.6L154,67.6z"/>
				</g>
				<g id="XMLID_59_">
					<path id="XMLID_60_" class="st4" d="M66.1,60.4c3.4,2.6,6.6,5.5,9.6,8.5c0.9,0.9,2.3-0.5,1.4-1.4c-3-3-6.2-5.9-9.6-8.5
						C66.5,58.2,65.1,59.6,66.1,60.4L66.1,60.4z"/>
				</g>
				<g id="XMLID_57_">
					<path id="XMLID_58_" class="st4" d="M74.9,67.8c25.8,1.1,51.7,1.5,77.6,1.2c1.3,0,1.3-2,0-2c-25.9,0.3-51.7-0.1-77.6-1.2
						C73.6,65.7,73.6,67.7,74.9,67.8L74.9,67.8z"/>
				</g>
				<g id="XMLID_55_">
					<path id="XMLID_56_" class="st4" d="M74.7,65.6c23.3-1.2,46.7-1.2,70-1.4c0.6,0,0.6-1,0-1c-23.3,0.2-46.7,0.2-70,1.4
						C74.1,64.6,74.1,65.6,74.7,65.6L74.7,65.6z"/>
				</g>
				<g id="XMLID_53_">
					<path id="XMLID_54_" class="st4" d="M72.8,64.2c15.4-1.5,31-1.5,46.5-1.7c0.6,0,0.6-1,0-1c-15.5,0.1-31.1,0.1-46.5,1.7
						C72.2,63.3,72.2,64.3,72.8,64.2L72.8,64.2z"/>
				</g>
				<g id="XMLID_51_">
					<path id="XMLID_52_" class="st4" d="M79.5,66.1c-1.5-2-3.1-3.9-4.6-5.9c-0.4-0.5-1.1,0.2-0.7,0.7c1.5,2,3.1,3.9,4.6,5.9
						C79.2,67.4,79.9,66.6,79.5,66.1L79.5,66.1z"/>
				</g>
				<g id="XMLID_49_">
					<path id="XMLID_50_" class="st4" d="M83,67.4c-1.5-2.1-2.9-4.3-4.1-6.7c-0.3-0.6-1.2-0.1-0.9,0.5c1.2,2.3,2.5,4.6,4.1,6.7
						C82.5,68.4,83.3,67.9,83,67.4L83,67.4z"/>
				</g>
				<g id="XMLID_47_">
					<path id="XMLID_48_" class="st4" d="M87.9,67.6c-1.8-2.5-3.5-5.1-5.1-7.7c-0.3-0.5-1.2,0-0.9,0.5c1.6,2.6,3.3,5.2,5.1,7.7
						C87.4,68.6,88.2,68.1,87.9,67.6L87.9,67.6z"/>
				</g>
				<g id="XMLID_45_">
					<path id="XMLID_46_" class="st4" d="M92.7,67.5c-1.6-2.3-3.1-4.5-4.7-6.8c-0.4-0.5-1.2,0-0.9,0.5c1.6,2.3,3.1,4.5,4.7,6.8
						C92.2,68.5,93.1,68,92.7,67.5L92.7,67.5z"/>
				</g>
				<g id="XMLID_43_">
					<path id="XMLID_44_" class="st4" d="M95.9,66.8c-1.4-1.8-2.8-3.6-4.2-5.3c-0.4-0.5-1.1,0.2-0.7,0.7c1.4,1.8,2.8,3.6,4.2,5.3
						C95.6,68,96.3,67.3,95.9,66.8L95.9,66.8z"/>
				</g>
				<g id="XMLID_41_">
					<path id="XMLID_42_" class="st4" d="M99.9,67.8c-1.6-1.9-3.1-3.9-4.5-5.9c-0.4-0.5-1.2,0-0.9,0.5c1.5,2.1,3.1,4.1,4.7,6.1
						C99.6,69,100.3,68.3,99.9,67.8L99.9,67.8z"/>
				</g>
				<g id="XMLID_39_">
					<path id="XMLID_40_" class="st4" d="M102.6,68.2C102.6,68.2,102.6,68.2,102.6,68.2c-0.2,0.3-0.1,0.6,0.1,0.7c0,0,0.1,0,0.1,0
						c0.3,0.1,0.7,0.1,0.7-0.3c0.1-1-1.1-1.9-1.7-2.6c-1.2-1.5-2.4-3-3.5-4.6c-0.4-0.5-1.2,0-0.9,0.5c0.8,1.1,1.6,2.3,2.5,3.4
						c0.4,0.5,0.8,1,1.2,1.5c0.2,0.2,1.4,1.5,1.4,1.6c0.2-0.1,0.5-0.2,0.7-0.3c0,0-0.1,0-0.1,0c0.1,0.2,0.1,0.5,0.2,0.7
						c0,0,0,0,0-0.1C103.8,68.1,102.9,67.6,102.6,68.2L102.6,68.2z"/>
				</g>
				<g id="XMLID_37_">
					<path id="XMLID_38_" class="st4" d="M106.6,67.5c-1.8-2-3.6-4.2-5.2-6.4c-0.4-0.5-1.2,0-0.9,0.5c1.7,2.3,3.4,4.5,5.3,6.6
						C106.4,68.7,107.1,68,106.6,67.5L106.6,67.5z"/>
				</g>
				<g id="XMLID_35_">
					<path id="XMLID_36_" class="st4" d="M110.9,67.4c-2-1.8-3.9-3.8-5.7-5.8c-0.4-0.5-1.1,0.2-0.7,0.7c1.8,2,3.7,3.9,5.7,5.8
						C110.6,68.6,111.3,67.8,110.9,67.4L110.9,67.4z"/>
				</g>
				<g id="XMLID_33_">
					<path id="XMLID_34_" class="st4" d="M116,68.7c-2.9-2.5-5.5-5.2-7.8-8.2c-0.4-0.5-1.3,0-0.9,0.5c2.4,3.1,5,5.9,8,8.4
						C115.8,69.9,116.5,69.2,116,68.7L116,68.7z"/>
				</g>
				<g id="XMLID_31_">
					<path id="XMLID_32_" class="st4" d="M118,67.7c-2.8-2.4-5.3-5.1-7.5-8.1c-0.4-0.5-1.2,0-0.9,0.5c2.3,3,4.8,5.8,7.6,8.3
						C117.7,68.9,118.5,68.2,118,67.7L118,67.7z"/>
				</g>
				<g id="XMLID_29_">
					<path id="XMLID_30_" class="st4" d="M119.3,67.6c0.1,0.1,0.1,0.3,0.2,0.4c0.3-0.2,0.5-0.4,0.8-0.6c-2-2-3.8-4.2-5.4-6.5
						c-0.4-0.5-1.2,0-0.9,0.5c1.6,2.4,3.5,4.7,5.5,6.7c0.4,0.4,1-0.1,0.8-0.6c-0.1-0.1-0.1-0.3-0.2-0.4
						C119.9,66.5,119,67,119.3,67.6L119.3,67.6z"/>
				</g>
				<g id="XMLID_27_">
					<path id="XMLID_28_" class="st4" d="M124.5,68.5c-2.3-2.1-4.4-4.4-6.2-7c-0.4-0.5-1.2,0-0.9,0.5c1.9,2.6,4,5,6.4,7.2
						C124.3,69.6,125,68.9,124.5,68.5L124.5,68.5z"/>
				</g>
				<g id="XMLID_25_">
					<path id="XMLID_26_" class="st4" d="M127.5,66.9c-2.3-1.8-4.4-3.8-6.1-6.2c-0.4-0.5-1.3,0-0.9,0.5c1.9,2.5,4,4.7,6.5,6.5
						C127.5,68.2,128,67.3,127.5,66.9L127.5,66.9z"/>
				</g>
				<g id="XMLID_23_">
					<path id="XMLID_24_" class="st4" d="M130.2,66.3c-2.2-1.9-4.1-4-5.8-6.3c-0.4-0.5-1.2,0-0.9,0.5c1.7,2.4,3.7,4.6,6,6.5
						C130,67.5,130.7,66.8,130.2,66.3L130.2,66.3z"/>
				</g>
				<g id="XMLID_21_">
					<path id="XMLID_22_" class="st4" d="M133.9,67.4c-2.2-1.9-4.2-4-5.8-6.4c-0.4-0.5-1.2,0-0.9,0.5c1.7,2.5,3.7,4.7,6,6.6
						C133.7,68.6,134.4,67.8,133.9,67.4L133.9,67.4z"/>
				</g>
				<g id="XMLID_19_">
					<path id="XMLID_20_" class="st4" d="M138.1,67.7c-2.6-1.7-4.8-4-6.5-6.7c-0.3-0.5-1.2,0-0.9,0.5c1.8,2.8,4.1,5.2,6.9,7
						C138.1,68.9,138.6,68,138.1,67.7L138.1,67.7z"/>
				</g>
				<g id="XMLID_17_">
					<path id="XMLID_18_" class="st4" d="M143.2,67.3c-2.6-1.8-4.8-3.9-6.8-6.4c-0.4-0.5-1.1,0.2-0.7,0.7c2,2.5,4.3,4.7,7,6.5
						C143.3,68.5,143.8,67.6,143.2,67.3L143.2,67.3z"/>
				</g>
				<g id="XMLID_15_">
					<path id="XMLID_16_" class="st4" d="M148.2,66.8c-1.6-0.5-2.9-1.8-4.2-2.9c-1.2-1-2.3-1.9-3.4-3c-0.5-0.4-1.2,0.3-0.7,0.7
						c1.4,1.3,2.8,2.5,4.3,3.7c1.2,0.9,2.3,1.9,3.8,2.4C148.6,68,148.8,67,148.2,66.8L148.2,66.8z"/>
				</g>
				<g id="XMLID_13_">
					<path id="XMLID_14_" class="st4" d="M149.1,62.1c-0.2-4.6-0.2-9.1,0.1-13.7c0-0.6-1-0.6-1,0c-0.2,4.6-0.3,9.1-0.1,13.7
						C148.1,62.7,149.1,62.7,149.1,62.1L149.1,62.1z"/>
				</g>
				<g id="XMLID_11_">
					<path id="XMLID_12_" class="st4" d="M151.2,62.8c0.2-4.3,0.6-8.6,1.3-12.9c0.1-0.6-0.9-0.9-1-0.3c-0.7,4.4-1.2,8.7-1.3,13.2
						C150.1,63.5,151.1,63.5,151.2,62.8L151.2,62.8z"/>
				</g>
				<g id="XMLID_8_">
					<path id="XMLID_10_" class="st4" d="M146.1,57.7c2,1.7,3.9,3.5,5.6,5.5c0.4,0.5,1.1-0.2,0.7-0.7c-1.8-1.9-3.7-3.7-5.6-5.5
						C146.3,56.5,145.6,57.2,146.1,57.7L146.1,57.7z"/>
				</g>
				<g id="XMLID_6_">
					<path id="XMLID_7_" class="st4" d="M146.5,56.1c1.9,1,3.7,2,5.6,3.1c0.6,0.3,1.1-0.6,0.5-0.9c-1.9-1-3.7-2-5.6-3.1
						C146.4,54.9,145.9,55.8,146.5,56.1L146.5,56.1z"/>
				</g>
				<g id="XMLID_4_">
					<path id="XMLID_5_" class="st4" d="M146.6,53.3c1.8,1.1,3.7,2.1,5.5,3.2c0.6,0.3,1.1-0.5,0.5-0.9c-1.8-1.1-3.7-2.1-5.5-3.2
						C146.6,52.1,146.1,52.9,146.6,53.3L146.6,53.3z"/>
				</g>
				<g id="XMLID_2_">
					<path id="XMLID_3_" class="st4" d="M145.7,50.3c2.2,1.1,4.3,2.3,6.4,3.6c0.5,0.4,1-0.5,0.5-0.9c-2-1.4-4.2-2.6-6.4-3.6
						C145.6,49.2,145.1,50,145.7,50.3L145.7,50.3z"/>
				</g>
			</g>
		</g>
	</g>
	<g id="XMLID_34477_">
		<g id="XMLID_34481_">
			<g id="XMLID_34542_">
				<g id="XMLID_34543_">
					<path id="XMLID_34544_" class="st5" d="M94.1,138.1c2.7-1.1,5,1.6,6.5,3.5c2.3,2.9,4.2,6.2,4.8,10c1,6.8-3.3,12.5-9.9,14.1
						c-6.2,1.5-14.6-0.1-18.8-5.1c-2-2.3-3-5.3-2.5-8.4c0.6-3.3,2.7-6.1,4.6-8.7c2.3-3.1,4.9-6,8.9-6.6c3.7-0.6,7.5,0.7,10.9,2
						c0.5,0.2,0.3,0.9-0.2,0.8c-2.6-1-5.3-1.9-8.1-2.1c-3.3-0.2-6.2,1.1-8.5,3.4c-2,2-3.7,4.5-5.1,7c-1.5,2.6-2.5,5.5-1.5,8.5
						c2,6.1,9.1,8.6,15,8.8c6.2,0.3,13-2.6,14.3-9.2c0.7-3.5-0.2-7-1.9-10.1c-1-1.8-2.2-3.5-3.5-5c-1.1-1.3-2.8-3-4.6-2.2
						C94,138.9,93.6,138.3,94.1,138.1L94.1,138.1z"/>
				</g>
			</g>
			<g id="XMLID_34539_">
				<g id="XMLID_34540_">
					<path id="XMLID_34541_" class="st5" d="M98.7,138.8c-8.4,4.4-16.8,8.8-25.2,13.2c-0.1,0.1-0.4,0.1-0.5-0.1
						c-4.3-5.3-8-11-11-17.1c-0.2-0.3,0.1-0.6,0.5-0.6c2.1,0.5,4.3,0.9,6.4,1.4c1,0.2,2,0.4,3.1,0.7c1,0.2,3.3,1.1,4.1,0.2
						c0.4-0.5,0.5-2.2,0.6-2.9c0.2-1.1,0.4-2.2,0.6-3.3c0.3-2.1,0.6-4.2,0.8-6.4c0-0.3,0.4-0.5,0.7-0.3c2.8,2.6,5.6,5.2,8.2,8
						c-0.2,0-0.4,0-0.6,0.1c1.5-2.9,3-5.9,4.4-8.8c0.1-0.3,0.6-0.2,0.7,0c2.4,5.3,5.5,10.1,9.2,14.5c0.2,0.2,0.1,0.5-0.1,0.6
						c-1.5,0.9-3.1,1.7-4.6,2.6c-0.4,0.2-0.8-0.4-0.4-0.7c1.5-0.9,3.1-1.7,4.6-2.6c0,0.2-0.1,0.4-0.1,0.6c-3.8-4.5-6.9-9.4-9.4-14.7
						c0.2,0,0.5,0,0.7,0c-1.5,2.9-3,5.9-4.4,8.8c-0.1,0.2-0.5,0.2-0.6,0.1c-2.7-2.7-5.4-5.4-8.2-8c0.2-0.1,0.5-0.2,0.7-0.3
						c-0.2,2.5-0.5,5.1-1,7.6c-0.2,1.1-0.4,2.3-0.6,3.4c-0.2,0.8-0.1,2.2-0.9,2.7c-0.4,0.3-1,0.1-1.5,0c-1.3-0.3-2.7-0.6-4-0.9
						c-2.9-0.6-5.7-1.2-8.6-1.8c0.2-0.2,0.3-0.4,0.5-0.6c1.8,3.5,3.7,6.9,5.9,10.1c1.2,1.8,2.5,3.6,3.9,5.4c0.2,0.2,0.5,0.9,0.8,1
						c0.5,0.2,0.8-0.1,1.3-0.3c0.9-0.5,1.8-1,2.7-1.4c7-3.7,14.1-7.4,21.1-11C98.8,137.9,99.1,138.5,98.7,138.8L98.7,138.8z"/>
				</g>
			</g>
			<g id="XMLID_34536_">
				<g id="XMLID_34537_">
					<path id="XMLID_34538_" class="st5" d="M97.1,138.1c2.6,0.8,4.5,2.8,5.1,5.5c0.1,0.2-0.1,0.5-0.4,0.5c-2.6-0.2-4.9-1.3-6.7-3.2
						c0.2-0.2,0.4-0.3,0.6-0.5c1,1.7,2.2,3.5,2.7,5.3c0.3,0.8,0.4,2.1-0.4,2.7c-0.9,0.6-2.1-0.2-2.8-0.7c-1.4-1-2.6-2.3-3.5-3.7
						c0.2-0.1,0.5-0.2,0.7-0.3c0.5,1.6,3.7,5.3,0.7,6.5c-2.7,1.1-3.9-3.1-6-3.8c0.2-0.2,0.3-0.4,0.5-0.6c1.1,1.7,2.5,4.8,0.1,6.2
						c-2.4,1.4-4.1-1.7-4.7-3.5c-0.2-0.4,0.6-0.7,0.7-0.3c0.7,1.7,1.1,5-0.9,6.1c-2.4,1.3-4.1-1.6-4.8-3.4c-0.1-0.4,0.3-0.8,0.6-0.5
						c1.7,2.2,0.4,5.4-2.4,5.5c-3,0.1-4.5-2.9-3.5-5.5c0.2-0.5,0.9-0.2,0.8,0.2c-0.7,1.7-0.1,4,1.9,4.4c2.3,0.5,4.2-2.1,2.7-4.1
						c0.2-0.2,0.4-0.3,0.6-0.5c0.5,1.3,1.7,4.2,3.7,3.1c1.6-0.9,1.1-3.8,0.5-5c0.2-0.1,0.5-0.2,0.7-0.3c0.4,1,0.8,2.2,1.7,2.8
						c1,0.7,2.3,0.3,2.7-0.9c0.5-1.4-0.5-2.9-1.2-4.1c-0.2-0.3,0.1-0.7,0.5-0.6c1.7,0.5,2.2,2.1,3.5,3.2c0.2,0.2,0.4,0.3,0.6,0.4
						c0.7,0.5,1.2,0.4,1.5-0.4c0.8-0.8,0.7-1.3,0.2-2.3c-0.5-0.9-1.1-1.7-1.4-2.7c-0.1-0.4,0.5-0.6,0.7-0.3c0.6,0.9,1.2,1.8,2,2.5
						c0.5,0.5,3.4,2.9,3.4,0.5c0-1-0.8-2-1.2-2.9c-0.5-1-1.1-2-1.6-2.9c-0.2-0.4,0.3-0.8,0.6-0.5c1.6,1.8,3.8,2.8,6.2,3
						c-0.1,0.2-0.3,0.3-0.4,0.5c-0.5-2.4-2.2-4.2-4.5-4.9C96.4,138.7,96.7,137.9,97.1,138.1L97.1,138.1z"/>
				</g>
			</g>
			<g id="XMLID_34533_">
				<g id="XMLID_34534_">
					<path id="XMLID_34535_" class="st5" d="M100.2,151.6c0.1,0.2,0.2,0.2,0.3,0.2c0,0,0,0,0,0c0-0.1,0-0.2,0-0.2c0,0,0.2,0,0.3,0
						c-0.1,0.1-0.2,0.2-0.3,0.4C100.6,151.8,100.5,151.6,100.2,151.6c0.2-0.1,0.3-0.2,0.5-0.3c-0.1,0.6-0.9,0.9-1.4,0.6
						c0.2-0.1,0.4-0.2,0.6-0.3c0,0-0.1-0.1-0.1-0.1c0,0,0,0,0,0c0.1,0,0,0,0,0c0,0-0.1,0.1-0.1,0c0-0.2,0.3-0.3,0.5-0.3
						c0.2,0.1,0.3,0.3,0.3,0.5c-0.1,0.8-1.5,0.6-1.4-0.2c0-0.3,0.3-0.5,0.6-0.3c0.1,0.1,0.3,0,0.3-0.2c0-0.2,0.2-0.3,0.4-0.3
						c0.6,0.1,1,0.5,1,1.1c0,0.2-0.1,0.4-0.3,0.4c-0.3,0-0.6,0-0.9-0.1c-0.2-0.2-0.4-0.4-0.3-0.7c0.2-0.5,1-0.7,1.1-0.1
						C101.1,151.9,100.4,152.1,100.2,151.6L100.2,151.6z"/>
				</g>
			</g>
			<g id="XMLID_34530_">
				<g id="XMLID_34531_">
					<path id="XMLID_34532_" class="st5" d="M86.1,157.3c-0.4-0.5-1.3-0.2-1.6,0.3c-0.4,0.8,0.8,1.3,1.4,1c0.7-0.4,0.2-1.6-0.5-1.5
						c-0.7,0-0.5,1.3,0.1,1.2c-0.1,0.2-0.3,0.3-0.4,0.5c0-0.3-0.1-0.7-0.1-1c-0.1-0.5,0.7-0.7,0.8-0.2c0,0.3,0.1,0.7,0.1,1
						c0,0.3-0.1,0.5-0.4,0.5c-1.1,0.1-1.6-1.3-1.2-2.1c0.6-1.1,2-0.6,2.5,0.3c0.6,1.1-0.2,2.3-1.4,2.3c-1.1,0-2.2-1-1.7-2.2
						c0.5-1,2.1-1.4,2.9-0.6C87,157.2,86.4,157.7,86.1,157.3L86.1,157.3z"/>
				</g>
			</g>
			<g id="XMLID_34527_">
				<g id="XMLID_34528_">
					<path id="XMLID_34529_" class="st5" d="M100.3,151.9c-0.1-0.3-0.3-0.3-0.5-0.2c0.1-0.1,0.1-0.2,0.2-0.3
						c-0.1,0.4,0.7,0.7,0.7,0.2c0-0.5-0.4-0.9-0.9-0.9c0.1-0.1,0.2-0.1,0.3-0.2c-0.2,0.4,0.2,0.8,0.6,0.7c-0.1,0.2-0.3,0.3-0.4,0.5
						c0-0.2-0.1-0.5-0.4-0.5c-0.2,0-0.1,0.1,0,0.2c-0.1,0.1-0.3,0.3-0.4,0.4c0-0.2-0.4-0.4-0.4-0.2c-0.1-0.2-0.2-0.3-0.3-0.5
						c0.1,0,0.1-0.1,0.1-0.2c0.1-0.2,0-0.3-0.2-0.4c-0.2-0.1-0.4-0.2-0.7-0.3c0.2-0.1,0.3-0.2,0.5-0.3c-0.1,0.6,0.4,1.2,1,1.1
						c0.5,0,0.5,0.8,0,0.8c-1.1,0.1-2-1.1-1.7-2.1c0-0.2,0.3-0.3,0.5-0.3c0.7,0.2,1.6,0.6,1.5,1.5c0,0.6-0.6,1.1-1.2,0.9
						c-0.2,0-0.3-0.3-0.3-0.5c0.3-1.1,2.1-0.7,2,0.4c0,0.2-0.2,0.4-0.4,0.4c-0.7-0.1-1.2-1-0.7-1.5c0.6-0.7,1.7,0.2,1.8,0.9
						c0,0.3-0.1,0.5-0.4,0.5c-1,0.1-1.6-1-1.3-1.9c0.1-0.1,0.2-0.2,0.3-0.2c0.8,0,1.4,0.6,1.6,1.4c0.2,0.8-0.3,1.5-1.2,1.4
						c-0.6-0.1-1.4-0.8-1-1.5c0.5-0.8,1.6-0.1,1.8,0.6C101.2,152.2,100.5,152.4,100.3,151.9L100.3,151.9z"/>
				</g>
			</g>
			<g id="XMLID_34524_">
				<g id="XMLID_34525_">
					<path id="XMLID_34526_" class="st5" d="M100.7,156.6c-1.4,2.5-3.2,5-6,6c-2.2,0.8-4.7,0.5-6.5-1.1c-0.4-0.3,0.2-0.9,0.6-0.5
						c1.8,1.6,4.4,1.6,6.5,0.5c2.2-1.1,3.6-3.3,4.8-5.3C100.3,155.7,101,156.1,100.7,156.6L100.7,156.6z"/>
				</g>
			</g>
			<g id="XMLID_34521_">
				<g id="XMLID_34522_">
					<path id="XMLID_34523_" class="st5" d="M90.4,125.2c0.8,0.4,1.6,0.8,2.4,1.1c-0.2,0.1-0.4,0.3-0.6,0.4
						c-0.1-0.7-0.5-1.1-1.2-1.3c0.2-0.2,0.3-0.3,0.5-0.5c0.1,1.1,0.6,1.8,1.5,2.5c-0.2,0.2-0.3,0.4-0.5,0.6c-0.2,0-0.5-0.1-0.7-0.1
						c0.1-0.2,0.1-0.4,0.2-0.7c0.8,0.8,1.6,1.7,2.4,2.5c0.4,0.4-0.2,0.9-0.6,0.5c-1.2-1-2.4-1.9-3.9-2.5c0.1-0.2,0.3-0.4,0.4-0.7
						c1.7,1.4,3.5,2.7,5.2,4.1c0.4,0.3,0,1-0.4,0.7c-1.4-0.9-2.8-1.9-4.1-2.8c0.2-0.2,0.4-0.3,0.5-0.5c1.4,1.9,3,3.5,5,4.9
						c-0.2,0.2-0.3,0.4-0.5,0.6c-1.7-2.1-3.7-3.8-5.9-5.2c0.2-0.2,0.4-0.3,0.5-0.5c2.1,3.2,4.8,5.9,7.9,8.2
						c-0.2,0.2-0.3,0.4-0.5,0.6c-2.3-3-5.1-5.4-8.3-7.4c0.2-0.2,0.4-0.3,0.5-0.5c1.7,3,4,5.5,7,7.3c-0.2,0.2-0.4,0.3-0.5,0.5
						c-1.4-2.6-3.5-4.5-6.2-5.8c0.2-0.1,0.4-0.3,0.6-0.4c1,2.8,2.7,5.1,5,6.9c-0.2,0.2-0.4,0.3-0.5,0.5c-1.7-2.8-3.8-5.2-6.4-7.2
						c0.2-0.1,0.4-0.3,0.6-0.4c0.8,3.1,2.5,5.7,4.9,7.8c-0.2,0.2-0.4,0.4-0.6,0.5c-1.9-2.6-4-5.2-6.2-7.6c0.2-0.2,0.4-0.3,0.6-0.5
						c1.3,2.8,2.8,5.4,4.5,8c0.3,0.4-0.4,0.8-0.7,0.4c-1.5-2.2-3.2-4.3-5-6.2c0.2-0.1,0.4-0.2,0.7-0.4c0.8,2.2,1.9,4.2,3.3,6.1
						c-0.2,0.1-0.5,0.2-0.7,0.3c-0.9-2.5-2.3-4.7-4.2-6.5c0.2-0.2,0.4-0.3,0.6-0.5c0.8,2,1.6,4.1,2.3,6.1c0.2,0.5-0.4,0.8-0.7,0.4
						c-1.6-2.5-3-5-4.4-7.6c0.2-0.1,0.5-0.2,0.7-0.3c0.9,2.9,2,5.8,3.4,8.5c0.2,0.4-0.4,0.8-0.7,0.4c-1.8-3.3-3.6-6.5-5.3-9.8
						c0.2-0.1,0.5-0.3,0.7-0.4c1,2.1,2,4.2,3,6.3c0.2,0.5-0.4,0.8-0.7,0.4c-2.1-3.5-4-7.2-5.6-11c-0.2-0.5,0.4-0.8,0.7-0.4
						c1.3,2.4,2.7,4.9,4,7.3c0.2,0.5-0.4,0.8-0.7,0.4c-1.6-2.3-3.1-4.6-4.3-7.1c0.2-0.1,0.5-0.3,0.7-0.4c1.4,3.2,2.9,6.4,4.3,9.6
						c0.2,0.5-0.4,0.8-0.7,0.4c-1.7-2.5-3.2-5.1-4.6-7.8c0.2-0.1,0.5-0.2,0.7-0.3c1.2,3.7,2.6,7.3,4.2,10.8c0.2,0.5-0.4,0.8-0.7,0.4
						c-2-2.8-3.5-5.9-4.5-9.2c-0.2-0.5,0.6-0.7,0.8-0.2c1.1,3.3,2.2,6.6,3.3,9.9c0.1,0.4-0.5,0.7-0.7,0.3c-1.1-2.3-2.2-4.5-3.3-6.8
						c0.2-0.1,0.5-0.2,0.7-0.3c0.7,2.8,1.5,5.7,2.2,8.5c0.1,0.4-0.5,0.7-0.7,0.3c-1.1-2.3-2.2-4.7-3.3-7c0.2-0.1,0.5-0.2,0.7-0.3
						c0.8,2.8,1.6,5.7,2.4,8.5c0.1,0.4-0.5,0.7-0.7,0.3c-0.8-1.5-1.6-2.9-2.5-4.4c0.2-0.1,0.5-0.3,0.7-0.4c0.7,1.5,1.1,3,1.5,4.5
						c0.1,0.3-0.4,0.7-0.7,0.4c-1.2-1.6-2.2-3.2-3-5c0.2-0.1,0.5-0.3,0.7-0.4c0.7,1.6,1.3,3.3,1.7,5c0.1,0.4-0.4,0.7-0.7,0.4
						c-1.2-1.5-2.3-3-3.5-4.5c0.2-0.1,0.4-0.2,0.7-0.4c0.7,2.1,1.4,4.2,2.1,6.3c0.1,0.4-0.4,0.7-0.7,0.4c-1.4-1.7-2.6-3.6-3.6-5.5
						c0.2-0.1,0.5-0.2,0.7-0.3c0.4,2,1,4,1.9,5.8c0.2,0.4-0.3,0.8-0.6,0.5c-1.3-1.7-2.6-3.4-4-5.1c0.2-0.2,0.4-0.3,0.6-0.5
						c0.7,1.3,1.4,2.5,2.1,3.8c0.2,0.4-0.4,0.8-0.6,0.5c-1.4-1.9-2.9-3.8-4.3-5.6c0.2-0.1,0.4-0.2,0.7-0.4c0.8,2.2,1.8,4.4,2.9,6.4
						c0.2,0.4-0.3,0.8-0.6,0.5c-2-2.2-3.7-4.5-5.2-7.1c0.2-0.1,0.5-0.3,0.7-0.4c0.9,2.1,2.1,4,3.5,5.8c-0.2,0.2-0.4,0.3-0.6,0.5
						c-1.8-2.5-3.5-5-5.3-7.5c0.2-0.1,0.5-0.3,0.7-0.4c1.4,3.4,3.3,6.5,5.7,9.3c-0.2,0.2-0.4,0.3-0.6,0.5c-2.1-3-4.2-6-6.4-9
						c0.2-0.1,0.5-0.3,0.7-0.4c1,2.5,2.3,4.9,3.7,7.2c0.2,0.4-0.3,0.8-0.6,0.5c-1.4-1.7-2.5-3.5-3.3-5.4c-0.2-0.5,0.5-0.8,0.7-0.4
						c2.4,5.3,6,9.9,10.4,13.7c-0.2,0.1-0.4,0.2-0.7,0.4c-0.6-2.9-1.4-5.7-2.6-8.4c0.2-0.1,0.5-0.2,0.7-0.3c0.7,2.3,1.8,4.4,3.4,6.2
						c-0.2,0.1-0.4,0.2-0.7,0.4c-0.2-1.3-0.5-2.6-1.2-3.8c-0.2-0.4-0.7-1.3-1.1-1.5c-1.6,0-2.2,0.5-1.9,1.7c0.1,0.3,0.1,0.6,0.2,0.8
						c0.1,0.4-0.5,0.7-0.7,0.3c-0.7-1.2-1.4-2.4-2-3.5c0.2-0.1,0.5-0.3,0.7-0.4c1.2,2.6,2.7,5,4.5,7.3c-0.2,0.1-0.4,0.2-0.7,0.4
						c-0.4-2.4-1-4.7-1.9-7c-0.1-0.3,0.3-0.6,0.6-0.4c1.3,0.7,2.4,1.6,3.5,2.7c-0.2,0.1-0.5,0.2-0.7,0.3c0.2-1.5,0.1-2.8-0.5-4.2
						c0.2-0.1,0.5-0.2,0.7-0.3c0.8,2.4,2.2,4.3,4.2,5.8c-0.2,0.1-0.4,0.3-0.6,0.4c-0.5-2.3-1.6-4.3-3.2-6c0.2-0.1,0.4-0.2,0.7-0.4
						c0.3,2.2,1.9,3.9,4.1,4.3c-0.2,0.2-0.3,0.3-0.5,0.5c-0.7-2.1-1.5-4.2-2.5-6.3c0.2-0.1,0.5-0.1,0.7-0.2c0.1,2.2,1.3,4,3.2,5
						c-0.2,0.1-0.4,0.2-0.6,0.3c0-2.3-0.8-4.4-2.4-6c0.2-0.1,0.4-0.2,0.7-0.4c0.3,2.2,1.6,3.9,3.6,4.9c-0.2,0.1-0.4,0.3-0.6,0.4
						c-0.6-2.6-1.9-4.7-3.8-6.5c0.2-0.1,0.4-0.2,0.7-0.4c0.4,2.6,1.5,4.8,3.3,6.7c-0.2,0.2-0.4,0.3-0.6,0.5c-0.9-2.2-2-4.2-3.2-6.2
						c0.2-0.1,0.5-0.3,0.7-0.4c0.7,1.3,1.6,2.3,2.9,3.1c-0.2,0.1-0.4,0.3-0.6,0.4c-0.3-1.8-0.8-3.6-1.6-5.2c0.2-0.1,0.5-0.3,0.7-0.4
						c1.2,2.9,3.3,5.1,6.1,6.5c-0.2,0.2-0.4,0.3-0.5,0.5c-1.2-2.1-2.4-4.2-3.5-6.3c-0.2-0.4,0.4-0.8,0.7-0.4
						c1.1,1.9,2.5,3.6,4.3,4.9c-0.2,0.1-0.4,0.3-0.6,0.4c-0.5-2.3-1.4-4.3-2.6-6.3c0.2-0.1,0.5-0.3,0.7-0.4c0.8,1.9,1.9,3.5,3.2,5.1
						c-0.2,0.1-0.4,0.2-0.7,0.4c-0.3-1.9-1-3.6-2-5.2c0.2-0.1,0.5-0.3,0.7-0.4c0.6,1.1,1.1,2.2,1.8,3.3c0.1,0.2,0.7,1.5,1,1.6
						c0.9,0.4,0.9-0.5,1.2-1c0.6-1,1.7-1.4,2.9-1.2c0.3,0.1,0.3,0.4,0.2,0.6c-0.5,1.1-1.1,1.9-2,2.7c-0.2-0.2-0.3-0.4-0.5-0.6
						c1-0.6,1.9-0.9,3-1.1c0.4-0.1,0.6,0.4,0.4,0.7c-0.6,0.7-1.2,1.4-1.7,2.1c-0.2-0.2-0.3-0.4-0.5-0.6c1.5-0.8,2.9-1.8,4.2-2.9
						c0.1,0.2,0.2,0.4,0.4,0.7c-3.2,0.9-6.6,0.4-9.5-1.2c0.2-0.1,0.4-0.2,0.6-0.3c0,1.8,0.8,3.4,2.4,4.3c-0.2,0.1-0.4,0.3-0.6,0.4
						c-0.5-1.4-1.4-2.4-2.7-3.1c0.2-0.2,0.4-0.3,0.5-0.5c0.8,1.7,2.5,2.5,4.3,2.1c0.3-0.1,0.6,0.3,0.4,0.6c-0.3,0.5-0.6,1-0.9,1.5
						c-0.1,0.2-0.4,0.2-0.6,0.1c-1.3-1.1-2.8-2-4.4-2.6c0.2-0.2,0.3-0.3,0.5-0.5c0.3,1.6,0.9,3,1.8,4.4c0.3,0.4-0.3,0.8-0.6,0.5
						c-1.1-1.3-2.5-2.2-4-2.9c0.2-0.1,0.3-0.2,0.5-0.4c0,1.3,0.4,2.5,1.2,3.6c-0.2,0.1-0.5,0.3-0.7,0.4c-0.6-1.2-1.3-2.3-2.3-3.3
						c0.2-0.1,0.4-0.2,0.7-0.4c0.3,1.1,0.7,1.9,1.3,2.8c-0.2,0.1-0.5,0.2-0.7,0.3c-0.1-0.9-0.4-1.5-1.1-2.2c0.2-0.1,0.5-0.2,0.7-0.3
						c-0.1,0.8,0.1,1.6,0.6,2.2c0.3,0.4-0.2,0.9-0.6,0.5c-0.8-0.9-1.7-1.6-2.8-2.1c0.2-0.1,0.3-0.2,0.5-0.4
						c-0.1,1.4,0.2,2.6,1.2,3.6c0.4,0.4-0.2,0.9-0.6,0.5c-1.2-1.2-2.6-2.1-4.2-2.8c0.2-0.2,0.3-0.3,0.5-0.5c0.3,1.4,1,2.5,2.1,3.5
						c0.4,0.3-0.2,0.9-0.6,0.5c-0.9-0.8-1.8-1.5-2.7-2.3c0.2-0.1,0.4-0.1,0.7-0.2c-0.2,1,0.2,1.8,1,2.3c-0.2,0.2-0.4,0.3-0.5,0.5
						c-0.5-1-1.1-1.7-2.1-2.2c0.2-0.1,0.4-0.1,0.6-0.2c-0.2,0.8,0.1,1.4,0.8,1.7c-0.2,0.2-0.4,0.3-0.5,0.5c-0.3-0.5-0.7-0.9-1.2-1.1
						c0.2-0.1,0.4-0.3,0.6-0.4c0.3,0.9,0.7,1.8,1.2,2.6c-0.2,0.1-0.5,0.3-0.7,0.4c-0.5-1.1-1-1.9-1.8-2.8c0.2-0.1,0.4-0.1,0.7-0.2
						c-0.1,0.6,0.1,1.1,0.6,1.4c0.8,0.2,1,0,0.6-0.6c0-0.7-0.6-1.8-0.9-2.5c-0.2-0.5,0.5-0.8,0.7-0.4c0.1,0.1,0.1,0.2,0.2,0.4
						c0.2,0.5-0.5,0.8-0.7,0.4c-0.1-0.1-0.1-0.2-0.2-0.4c0.2-0.1,0.5-0.3,0.7-0.4c0.5,1.2,0.9,2.4,1.2,3.7c0,0.2,0,0.4-0.2,0.4
						c-1.5,0.7-3.3-0.7-2.8-2.4c0.1-0.3,0.5-0.4,0.7-0.2c0.8,0.9,1.4,1.8,1.9,3c0.2,0.5-0.4,0.8-0.7,0.4c-0.6-0.9-1-1.8-1.3-2.8
						c-0.1-0.3,0.3-0.6,0.6-0.4c0.7,0.4,1.1,0.8,1.5,1.4c0.2,0.4-0.2,0.7-0.5,0.5c-1-0.5-1.4-1.5-1.1-2.6c0.1-0.3,0.4-0.3,0.6-0.2
						c1.1,0.6,1.9,1.4,2.4,2.5c0.2,0.3-0.2,0.7-0.5,0.5c-1.2-0.7-1.6-1.9-1.3-3.2c0.1-0.3,0.5-0.3,0.7-0.2c0.9,0.8,1.8,1.5,2.7,2.3
						c-0.2,0.2-0.4,0.4-0.6,0.5c-1.2-1.1-1.9-2.3-2.3-3.8c-0.1-0.3,0.2-0.6,0.5-0.5c1.7,0.7,3.2,1.7,4.5,3c-0.2,0.2-0.4,0.4-0.6,0.5
						c-1.1-1.2-1.6-2.6-1.5-4.2c0-0.2,0.3-0.5,0.5-0.4c1.2,0.5,2.2,1.3,3.1,2.3c-0.2,0.2-0.4,0.4-0.6,0.5c-0.7-0.8-1-1.7-0.9-2.8
						c0-0.3,0.4-0.5,0.7-0.3c0.7,0.8,1.1,1.5,1.3,2.6c0.1,0.5-0.5,0.6-0.7,0.3c-0.7-0.9-1.1-1.9-1.4-3c-0.1-0.4,0.4-0.6,0.7-0.4
						c1,1,1.8,2.1,2.4,3.4c0.2,0.5-0.4,0.8-0.7,0.4c-0.8-1.2-1.2-2.5-1.3-4c0-0.2,0.3-0.5,0.5-0.4c1.7,0.7,3.1,1.7,4.4,3.1
						c-0.2,0.2-0.4,0.3-0.6,0.5c-1-1.4-1.6-2.9-1.9-4.6c-0.1-0.3,0.2-0.6,0.5-0.5c1.8,0.7,3.3,1.6,4.8,2.8c-0.2,0-0.4,0-0.6,0.1
						c0.3-0.5,0.6-1,0.9-1.5c0.1,0.2,0.3,0.4,0.4,0.6c-2.1,0.6-4.3-0.4-5.1-2.4c-0.2-0.3,0.2-0.7,0.5-0.5c1.5,0.8,2.4,2,3,3.6
						c0.1,0.3-0.3,0.6-0.6,0.4c-1.8-1.1-2.8-2.9-2.8-5c0-0.3,0.3-0.5,0.6-0.3c2.7,1.6,5.9,1.9,8.9,1.1c0.4-0.1,0.7,0.4,0.4,0.7
						c-1.3,1.2-2.8,2.2-4.3,3c-0.4,0.2-0.7-0.3-0.5-0.6c0.6-0.7,1.2-1.4,1.7-2.1c0.1,0.2,0.2,0.4,0.4,0.7c-1,0.2-1.9,0.5-2.8,1.1
						c-0.4,0.2-0.8-0.3-0.5-0.6c0.8-0.7,1.4-1.6,1.9-2.6c0.1,0.2,0.1,0.4,0.2,0.6c-2.1-0.4-1.7,1.4-2.8,2.2c-0.3,0.2-0.6,0.3-1,0.2
						c-0.7-0.2-1.1-1.2-1.4-1.8c-0.7-1.2-1.4-2.5-2.1-3.8c-0.2-0.5,0.4-0.8,0.7-0.4c1.1,1.7,1.8,3.4,2.1,5.4
						c0.1,0.4-0.4,0.7-0.7,0.4c-1.4-1.6-2.5-3.3-3.4-5.3c-0.2-0.5,0.4-0.8,0.7-0.4c1.3,2,2.2,4.2,2.7,6.5c0.1,0.3-0.3,0.6-0.6,0.4
						c-1.9-1.4-3.4-3.2-4.6-5.2c0.2-0.1,0.5-0.3,0.7-0.4c1.2,2.1,2.4,4.2,3.5,6.3c0.2,0.4-0.2,0.7-0.5,0.5c-2.9-1.4-5.2-3.8-6.4-6.8
						c-0.2-0.5,0.5-0.8,0.7-0.4c0.9,1.7,1.4,3.5,1.7,5.4c0,0.3-0.3,0.6-0.6,0.4c-1.4-0.8-2.4-1.9-3.2-3.4c-0.2-0.4,0.4-0.8,0.7-0.4
						c1.2,2,2.3,4.1,3.2,6.2c0.2,0.4-0.3,0.8-0.6,0.5c-1.9-2-3.1-4.4-3.5-7.1c-0.1-0.4,0.4-0.6,0.7-0.4c2,1.9,3.3,4.2,4,6.9
						c0.1,0.4-0.3,0.6-0.6,0.4c-2.2-1-3.6-3-4-5.4c-0.1-0.4,0.4-0.7,0.7-0.4c1.7,1.8,2.6,4.1,2.6,6.6c0,0.3-0.3,0.5-0.6,0.3
						c-2.2-1.2-3.4-3.3-3.6-5.7c0-0.4,0.6-0.5,0.7-0.2c1,2.1,1.9,4.2,2.6,6.5c0.1,0.3-0.2,0.5-0.5,0.5c-2.4-0.5-4.2-2.4-4.6-4.9
						c-0.1-0.4,0.4-0.7,0.7-0.4c1.7,1.8,2.8,4,3.4,6.4c0.1,0.3-0.3,0.6-0.6,0.4c-2.2-1.6-3.7-3.8-4.6-6.3c-0.1-0.4,0.5-0.7,0.7-0.3
						c0.7,1.5,0.9,3,0.6,4.6c0,0.3-0.4,0.5-0.7,0.3c-1-1-2.1-1.9-3.3-2.5c0.2-0.1,0.4-0.3,0.6-0.4c0.9,2.3,1.5,4.6,1.9,7
						c0.1,0.3-0.4,0.7-0.7,0.4c-1.8-2.3-3.4-4.8-4.6-7.4c-0.2-0.5,0.4-0.8,0.7-0.4c0.7,1.2,1.4,2.4,2,3.5c-0.2,0.1-0.5,0.2-0.7,0.3
						c-0.4-1.4-0.4-4.4,1.9-3.9c2.3,0.5,3.4,4.4,3.6,6.4c0,0.4-0.4,0.7-0.7,0.4c-1.7-1.9-2.9-4.1-3.6-6.5c-0.1-0.4,0.6-0.7,0.7-0.3
						c1.2,2.8,2.1,5.6,2.7,8.6c0.1,0.4-0.4,0.6-0.7,0.4c-4.5-3.8-8.1-8.5-10.6-13.8c0.2-0.1,0.5-0.3,0.7-0.4
						c0.8,1.9,1.9,3.7,3.2,5.3c-0.2,0.2-0.4,0.3-0.6,0.5c-1.4-2.3-2.6-4.7-3.7-7.2c-0.2-0.5,0.4-0.8,0.7-0.4c2.1,3,4.2,6,6.4,9
						c0.3,0.4-0.3,0.8-0.6,0.5c-2.4-2.8-4.4-6-5.9-9.4c-0.2-0.5,0.4-0.8,0.7-0.4c1.8,2.5,3.5,5,5.3,7.5c0.3,0.4-0.4,0.8-0.6,0.5
						c-1.5-1.8-2.7-3.8-3.7-6c-0.2-0.5,0.4-0.8,0.7-0.4c1.5,2.5,3.2,4.7,5.1,6.9c-0.2,0.2-0.4,0.3-0.6,0.5c-1.2-2.1-2.1-4.3-3-6.6
						c-0.1-0.4,0.4-0.7,0.7-0.4c1.4,1.9,2.9,3.8,4.3,5.6c-0.2,0.2-0.4,0.3-0.6,0.5c-0.7-1.3-1.4-2.5-2.1-3.8
						c-0.2-0.4,0.4-0.8,0.6-0.5c1.3,1.7,2.6,3.4,4,5.1c-0.2,0.2-0.4,0.3-0.6,0.5c-0.9-1.9-1.6-3.9-2-6c-0.1-0.4,0.5-0.7,0.7-0.3
						c1,1.9,2.1,3.7,3.4,5.4c-0.2,0.1-0.4,0.2-0.7,0.4c-0.7-2.1-1.4-4.2-2.1-6.3c-0.1-0.4,0.4-0.7,0.7-0.4c1.2,1.5,2.3,3,3.5,4.5
						c-0.2,0.1-0.4,0.2-0.7,0.4c-0.4-1.7-1-3.2-1.7-4.8c-0.2-0.5,0.5-0.8,0.7-0.4c0.8,1.7,1.7,3.3,2.9,4.8c-0.2,0.1-0.4,0.2-0.7,0.4
						c-0.3-1.5-0.7-2.9-1.4-4.3c-0.2-0.5,0.4-0.8,0.7-0.4c0.8,1.5,1.6,2.9,2.5,4.4c-0.2,0.1-0.5,0.2-0.7,0.3
						c-0.8-2.8-1.6-5.7-2.4-8.5c-0.1-0.4,0.5-0.7,0.7-0.3c1.1,2.3,2.2,4.7,3.3,7c-0.2,0.1-0.5,0.2-0.7,0.3c-0.7-2.8-1.5-5.7-2.2-8.5
						c-0.1-0.4,0.5-0.7,0.7-0.3c1.1,2.3,2.2,4.5,3.3,6.8c-0.2,0.1-0.5,0.2-0.7,0.3c-1.1-3.3-2.2-6.6-3.3-9.9
						c0.3-0.1,0.5-0.1,0.8-0.2c1,3.2,2.5,6.2,4.4,9c-0.2,0.1-0.5,0.3-0.7,0.4c-1.6-3.6-3-7.3-4.3-11c-0.1-0.4,0.5-0.7,0.7-0.3
						c1.4,2.7,2.9,5.3,4.6,7.8c-0.2,0.1-0.5,0.3-0.7,0.4c-1.4-3.2-2.9-6.4-4.3-9.6c-0.2-0.5,0.5-0.8,0.7-0.4
						c1.3,2.5,2.7,4.8,4.3,7.1c-0.2,0.1-0.5,0.3-0.7,0.4c-1.3-2.4-2.7-4.9-4-7.3c0.2-0.1,0.5-0.3,0.7-0.4c1.6,3.8,3.5,7.5,5.6,11
						c-0.2,0.1-0.5,0.3-0.7,0.4c-1-2.1-2-4.2-3-6.3c-0.2-0.5,0.4-0.8,0.7-0.4c1.8,3.3,3.6,6.5,5.3,9.8c-0.2,0.1-0.5,0.3-0.7,0.4
						c-1.4-2.8-2.6-5.7-3.5-8.7c-0.1-0.4,0.5-0.7,0.7-0.3c1.4,2.6,2.8,5.1,4.4,7.6c-0.2,0.1-0.5,0.3-0.7,0.4c-0.8-2-1.6-4.1-2.3-6.1
						c-0.2-0.4,0.3-0.8,0.6-0.5c2,2,3.5,4.2,4.4,6.9c0.2,0.5-0.5,0.6-0.7,0.3c-1.4-2-2.5-4-3.4-6.3c-0.1-0.4,0.4-0.6,0.7-0.4
						c1.9,2,3.6,4.1,5.2,6.4c-0.2,0.1-0.5,0.3-0.7,0.4c-1.7-2.5-3.2-5.2-4.5-8c-0.2-0.4,0.3-0.8,0.6-0.5c2.2,2.4,4.3,5,6.2,7.6
						c0.3,0.4-0.2,0.9-0.6,0.5c-2.6-2.2-4.3-4.9-5.1-8.2c-0.1-0.3,0.3-0.6,0.6-0.4c2.7,2.1,5,4.6,6.7,7.5c0.2,0.3-0.2,0.8-0.5,0.5
						c-2.5-2-4.3-4.4-5.4-7.4c-0.1-0.4,0.3-0.6,0.6-0.4c2.8,1.4,4.9,3.4,6.4,6.1c0.2,0.3-0.2,0.7-0.5,0.5c-3.1-1.9-5.5-4.4-7.3-7.6
						c-0.2-0.3,0.2-0.7,0.5-0.5c3.2,2,6.1,4.5,8.4,7.6c0.3,0.3-0.1,0.9-0.5,0.6c-3.2-2.3-5.9-5.2-8.2-8.5c-0.2-0.3,0.2-0.7,0.5-0.5
						c2.3,1.5,4.3,3.3,6.1,5.4c0.3,0.3-0.1,0.9-0.5,0.6c-2.1-1.4-3.8-3.1-5.2-5.2c-0.2-0.3,0.2-0.7,0.5-0.5c1.4,0.9,2.8,1.9,4.1,2.8
						c-0.1,0.2-0.3,0.4-0.4,0.7c-1.7-1.4-3.5-2.7-5.2-4.1c-0.4-0.3-0.1-0.9,0.4-0.7c1.5,0.7,2.8,1.6,4,2.7c-0.2,0.2-0.4,0.4-0.6,0.5
						c-0.8-0.8-1.6-1.7-2.4-2.5c-0.2-0.2-0.1-0.6,0.2-0.7c0.6-0.2,1-0.1,1.5,0.4c0.3,0.3-0.1,0.9-0.5,0.6c-1-0.7-1.6-1.7-1.8-3
						c0-0.3,0.2-0.6,0.5-0.5c0.9,0.3,1.5,0.9,1.7,1.9c0.1,0.4-0.3,0.6-0.6,0.4c-0.8-0.4-1.6-0.8-2.4-1.1
						C89.5,125.6,89.9,124.9,90.4,125.2L90.4,125.2z"/>
				</g>
			</g>
			<g id="XMLID_34518_">
				<g id="XMLID_34519_">
					<path id="XMLID_34520_" class="st5" d="M90.7,122.6c0.6-0.3,0.3-1.4-0.4-1.1c-0.8,0.4-0.4,1.5,0.5,1.4c0.8,0,1.2-1.3,0.4-1.6
						c-0.7-0.2-1.3,0.8-0.4,0.9c0.8,0.1,1.3-0.6,0.9-1.2c-0.4-0.7-1.3-0.6-1.5,0.2c-0.2,0.7,0.9,1.2,1.3,0.5c0.4-0.7-0.7-1.2-1.2-1
						c0.1-0.1,0.1-0.2,0.2-0.3c0,0.5,0.1,1.6,0.7,1.8c0.2,0.1,0.9-0.1,0.7-0.5c-0.2-0.5,0.5-0.8,0.7-0.4c0.4,0.8-0.4,1.6-1.2,1.6
						c-1.3,0.1-1.6-1.6-1.7-2.6c0-0.1,0.1-0.3,0.2-0.3c1-0.4,2.3,0.1,2.4,1.3c0.1,1.2-1.3,1.8-2.2,1.2c-1.1-0.6-0.7-2.2,0.3-2.7
						c1.1-0.6,2.3,0.5,2.3,1.6c0,1.2-1.3,1.8-2.3,1.4c-1.1-0.5-0.8-1.9,0.2-2.3c1.2-0.4,2.2,0.7,1.9,1.8c-0.3,1.2-1.9,1.7-2.8,0.8
						c-1-0.9-0.1-2.8,1.3-2.6c1.3,0.2,1.5,2.1,0.4,2.6C90.6,123.5,90.2,122.8,90.7,122.6L90.7,122.6z"/>
				</g>
			</g>
			<g id="XMLID_34515_">
				<g id="XMLID_34516_">
					<path id="XMLID_34517_" class="st5" d="M79.2,121.9c0.4-0.3-0.5-0.7-0.6,0c-0.1,0.3,0.1,0.4,0.3,0.6c0.3,0.2,1.1,0.3,1.2-0.3
						c0-0.4-0.5-0.8-0.8-0.8c-0.7-0.1-0.8,0.8-0.7,1.3c0.3,1,1.6,0.7,1.1-0.2c-0.3-0.6-1.2-0.8-1.6-0.2c-0.4,0.6,0.1,1.4,0.8,1
						c0.5-0.3,0.1-1.1-0.5-0.9c0.1-0.1,0.1-0.2,0.2-0.3c-0.1,0.8,0.4,1.5,1.2,1.5c-0.1,0.1-0.3,0.2-0.4,0.3c0.4-0.8,0.1-1.7-0.7-2.1
						c0.1,0,0.3,0,0.4,0c-0.7,0.3-0.3,1.7,0.5,1.3c0.8-0.4,0.3-1.9-0.6-1.4c-0.9,0.5-0.6,1.6,0.5,1.5c0.2,0,0.4-0.1,0.5-0.3
						c0.1-0.2-0.1-0.4-0.2-0.6c-0.2-0.4-0.5-0.9-1-1c-0.8-0.2-1.4,1.1-0.8,1.7c0.6,0.6,1.6-0.4,1.5-1.1c-0.2-1-2-0.6-1.3,0.6
						c0.5,1,1.8,1.2,2.7,0.9c0.5-0.2,0.6,0.6,0.2,0.8c-1.5,0.5-3.8-0.3-3.9-2.1c-0.1-1.5,2-2,2.8-0.8c0.7,1.1-0.3,2.7-1.5,2.7
						c-1.6,0.1-1.8-1.9-1-2.9c1.2-1.5,2.8,0.1,3.3,1.4c0.5,1.5-1.9,1.8-2.7,1c-1-1.1,0.2-2.7,1.5-2.6c1.5,0.1,1.7,2.1,0.6,2.9
						c-1.3,1-2.7-1-1.9-2.2c0.5-0.7,1.2-0.5,1.7,0.1c0.6,0.7,0.7,1.7,0.4,2.5c-0.1,0.2-0.2,0.3-0.4,0.3c-0.6,0-1.2-0.3-1.5-0.8
						c-0.3-0.4-0.7-1.3-0.3-1.8c0.8-0.9,2.1,0.5,2,1.4c-0.3,1.2-2,1.3-2.6,0.3c-0.7-1.2,0.5-2.6,1.8-2.3c1.1,0.3,2.2,1.9,1,2.8
						c-1.3,0.9-2.5-0.7-2.3-1.9c0.2-1.3,1.5-1.8,2.5-1c0.9,0.7,0.8,2.1-0.4,2.4c-1.2,0.3-2.6-1-1.7-2.2c1-1.3,2.8,0.3,1.7,1.3
						C79.3,122.8,78.8,122.2,79.2,121.9L79.2,121.9z"/>
				</g>
			</g>
			<g id="XMLID_34512_">
				<g id="XMLID_34513_">
					<path id="XMLID_34514_" class="st5" d="M61.4,135.3c-0.2-0.3-0.5-1.1-0.9-1c-0.3,0.1-0.4,0.4-0.1,0.5c0.3,0.1,0.7-0.1,0.8-0.4
						c0.4-0.6-0.7-1.2-1.2-0.9c-0.6,0.4-0.4,1.4,0.1,1.7c0.6,0.4,1.6-0.1,1.8-0.7c0.2-0.7-0.2-1.6-0.9-1.7c-0.6,0-1.4,0.8-0.9,1.3
						c0.2,0.2,0.6,0.3,0.9,0.2c0.4-0.2,0.3-0.8,0.1-1.2c-0.2-0.4-0.6-0.7-1-0.5c-0.7,0.3,0.1,0.9,0.3,0.5c0.2-0.5,0.9,0,0.7,0.4
						c-0.5,1.2-2.5,0.2-1.9-1c0.6-1.4,2.4-0.7,2.8,0.4c0.2,0.6,0.2,1.4-0.3,1.8c-0.4,0.4-1.1,0.4-1.6,0.2c-1.2-0.5-1-2.1,0-2.7
						c1.2-0.7,2.5,0.3,2.7,1.6c0.1,1.3-1.2,2.5-2.5,2.3c-1.2-0.3-1.8-1.8-1.1-2.8c0.7-1,2.3-0.7,2.8,0.3c0.7,1.5-1.9,2.8-2.5,1.2
						c-0.3-0.6,0.2-1.2,0.8-1.3c0.9-0.2,1.5,0.7,1.9,1.4C62.3,135.4,61.6,135.7,61.4,135.3L61.4,135.3z"/>
				</g>
			</g>
			<g id="XMLID_34509_">
				<g id="XMLID_34510_">
					<path id="XMLID_34511_" class="st5" d="M101.9,162c1.9,2.4,3.7,4.8,5.5,7.3c0.9,1.3,1.8,2.6,2.7,4c0.9,1.3,2,2.6,2.6,4.1
						c0.8,1.9-2.3,2.3-3.5,2.8c-3.1,1.3-6.2,2.5-9.3,3.8c-1.5,0.6-3.1,1.3-4.6,1.9c-1.2,0.5-2.6,1.3-4,1.6c-2,0.4-2.5-2-2.7-3.5
						c-0.4-2.8,0-5.7,0.2-8.4c0.2-3.2,0.4-6.4,0.6-9.7c0-0.5,0.8-0.5,0.8,0c-0.3,4.9-0.8,9.9-1,14.9c0,1.3,0,2.6,0.3,3.8
						c0.2,0.9,0.4,2.2,1.6,2.2c0.6,0,1.5-0.6,2-0.8c2.4-1,4.8-2,7.3-2.9c2.4-1,4.8-2,7.3-2.9c1.1-0.5,2.5-0.8,3.5-1.4
						c0.5-0.1,0.8-0.3,0.9-0.8c-0.1-0.2-0.2-0.3-0.3-0.5c-0.2-0.6-0.8-1.2-1.1-1.8c-2.9-4.4-6-8.7-9.3-12.9
						C101,162.2,101.6,161.6,101.9,162L101.9,162z"/>
				</g>
			</g>
			<g id="XMLID_34506_">
				<g id="XMLID_34507_">
					<path id="XMLID_34508_" class="st5" d="M89.3,171c-0.4,0-0.7-0.1-0.9-0.3c-0.4-0.2-0.9-0.4-1.4-0.6c-0.7-0.3-1.3-0.5-2-0.7
						c-1.2-0.3-2.4-0.6-3.6-0.8c-2-0.3-4.3-0.4-6.1-1.6c-0.7-0.5-1.2-1.2-1.6-2c-0.5-1-0.6-2.6-1.7-3.3c-1.1-0.6-2.4,0.2-2.6,1.3
						c-0.2,0.9,0.3,1.8,0.9,2.4c1.3,1.2,3.3,1,4.9,0.5c0.5-0.1,0.7,0.6,0.2,0.8c-1.6,0.5-3.4,0.7-5-0.3c-1.2-0.7-2.1-2.2-1.7-3.7
						c0.3-1.1,1.4-2.1,2.5-2.1c1.4,0,2.2,1.1,2.7,2.3c0.5,1.2,0.8,2.4,1.8,3.2c0.9,0.7,2,1,3.1,1.2c2.2,0.4,4.4,0.6,6.5,1.2
						c1,0.3,4.4,1,4.6,2.3c0.1,0.7-0.6,1-1.1,0.6C88.4,171.2,89,170.6,89.3,171L89.3,171z"/>
				</g>
			</g>
			<g id="XMLID_34503_">
				<g id="XMLID_34504_">
					<path id="XMLID_34505_" class="st5" d="M104.6,165.4c1.8,0.5,3.6,1,5.4,1.4c1.8,0.5,3.8,1.3,5.6,0.8c1.5-0.4,2.6-1.5,4.2-1.5
						c1.1,0,2.2,0.3,3,1c1.5,1.3,0.6,3-1.1,3.5c-2.4,0.7-5.3-0.6-7.2-2c-0.4-0.3,0-1,0.4-0.7c1.7,1.3,4.3,2.6,6.4,2
						c1-0.3,2.2-1,0.6-2.4c-0.4-0.4-1.3-0.6-1.8-0.6c-1.4-0.1-2.4,0.7-3.6,1.2c-1.6,0.7-3.3,0.4-5,0c-2.4-0.6-4.8-1.3-7.3-2
						C103.9,166,104.2,165.3,104.6,165.4L104.6,165.4z"/>
				</g>
			</g>
			<g id="XMLID_34500_">
				<g id="XMLID_34501_">
					<path id="XMLID_34502_" class="st5" d="M112.2,178.7c0.6,2.6,1.1,5.2,1.4,7.8c0.2,1.8,0.8,4.2-0.1,5.9
						c-0.9,1.7-3.4,2.5-4.9,3.3c-1.2,0.7-2.5,1.2-3.6,0.1c-1.3-1.3-1.1-3.2-1.3-4.8c-0.1-0.3-0.2-1.1-0.4-1.3
						c-0.2,0-0.5-0.1-0.7-0.1c-0.6-0.3-0.8-0.2-0.8,0.4c-0.2,0.5-0.1,1.3-0.2,1.8c0,1.5,0.1,3.1,0.4,4.6c0.4,1.8,0.1,2.2-1.8,2.6
						c-1.3,0.3-2.5,0.6-3.8,0.8c-0.7,0.1-1.4,0.2-2.1-0.1c-1.7-1-2.9-3.8-3.5-5.6c-0.9-2.4-1.2-4.9-1.1-7.4c0-0.5,0.8-0.5,0.8,0
						c-0.2,2.8,0.3,5.6,1.5,8.2c0.6,1.2,1.3,2.6,2.2,3.6c1.1,1.2,3,0.3,4.4,0c0.5-0.1,1.2-0.2,1.7-0.4c0.6,0,1-0.3,1-1.1
						c-0.1-0.4-0.2-0.7-0.2-1.1c-0.2-1.1-0.3-2.3-0.3-3.4c0-1.1-0.3-4.4,1.4-4.5c1.5-0.1,2,2.2,2.2,3.3c0.1,1.1,0,2.3,0.6,3.3
						c1,1.9,2.8,0.6,4.1-0.1c1.1-0.6,2.9-1.2,3.6-2.3c0.7-1.1,0.4-2.9,0.3-4.1c-0.2-3.1-0.8-6.2-1.5-9.2
						C111.3,178.4,112.1,178.2,112.2,178.7L112.2,178.7z"/>
				</g>
			</g>
			<g id="XMLID_34497_">
				<g id="XMLID_34498_">
					<path id="XMLID_34499_" class="st5" d="M110.8,194.5c0,3.5-0.1,6.9-0.3,10.4c-0.2-0.1-0.3-0.3-0.5-0.4c1.7-0.6,6.3-0.6,6.4,2.2
						c0.1,3.3-4.9-0.8-5.6-1.5c-0.4-0.4,0.2-0.9,0.6-0.5c0.6,0.6,1.3,1.2,2,1.7c0.3,0.2,0.6,0.4,0.9,0.6c1.2-0.4,1.4-0.8,0.6-1.2
						c-1.4-0.9-3.2-0.9-4.6-0.4c-0.2,0.1-0.5-0.2-0.5-0.4c0.3-3.4,0.4-6.9,0.3-10.4C110,194,110.8,194,110.8,194.5L110.8,194.5z"/>
				</g>
			</g>
			<g id="XMLID_34494_">
				<g id="XMLID_34495_">
					<path id="XMLID_34496_" class="st5" d="M99.5,199.1c0.5,1.4,0.9,2.8,1.1,4.3c0.1,0.9,0.4,2.3-0.1,3.1c-0.6,1-1.8,0.4-2.6,1.1
						c-0.2,0.5-0.4,1-0.6,1.5c0.3,0.1,0.7,0.3,1,0.4c0.9,0.1,1.4-0.6,1.7-1.3c0.4-0.8,0.4-1.7,0.4-2.5c0-0.5,0.8-0.5,0.8,0
						c-0.1,1.5-0.2,3.5-1.7,4.3c-1,0.5-2.5,0.3-3.1-0.7c-0.6-1.2,0.5-2.3,1.5-2.6c0.8-0.2,1.4,0,1.8-1.1c0.2-0.6-0.1-2.1-0.2-2.7
						c-0.2-1.3-0.5-2.5-1-3.7C98.6,198.8,99.4,198.6,99.5,199.1L99.5,199.1z"/>
				</g>
			</g>
			<g id="XMLID_34491_">
				<g id="XMLID_34492_">
					<path id="XMLID_34493_" class="st5" d="M55.3,136.8c1.8,2,3.8,3.7,6,5.1c0.4,0.3,0,0.9-0.4,0.7c-2.3-1.5-4.4-3.2-6.2-5.2
						C54.4,136.9,55,136.4,55.3,136.8L55.3,136.8z"/>
				</g>
			</g>
			<g id="XMLID_34488_">
				<g id="XMLID_34489_">
					<path id="XMLID_34490_" class="st5" d="M55.1,137.3c-0.4,1-0.7,2.1-1.1,3.1c-0.4,1.2-1.2,2.6-0.6,3.9c0.5,1,1.4,1.9,2.1,2.8
						c0.7,0.8,1.3,1.6,2,2.4c2.8,3.2,5.9,6.1,9.2,8.7c-0.2,0.1-0.4,0.2-0.7,0.4c-1.6-5.4-3.3-10.8-4.9-16.2
						c-0.1-0.5,0.6-0.7,0.8-0.2c1.6,5.4,3.3,10.8,4.9,16.2c0.1,0.4-0.4,0.6-0.7,0.4c-3.9-3.1-7.5-6.6-10.7-10.5
						c-1-1.2-2.9-2.9-3.2-4.6c-0.1-0.9,0.4-1.8,0.6-2.7c0.5-1.3,0.9-2.6,1.4-3.9C54.5,136.6,55.3,136.8,55.1,137.3L55.1,137.3z"/>
				</g>
			</g>
			<g id="XMLID_34485_">
				<g id="XMLID_34486_">
					<path id="XMLID_34487_" class="st5" d="M57.5,140.9c1.9,5.4,4.3,10.5,7.3,15.4c0.3,0.4-0.4,0.8-0.7,0.4
						c-3-4.9-5.5-10.1-7.3-15.6C56.6,140.6,57.3,140.4,57.5,140.9L57.5,140.9z"/>
				</g>
			</g>
			<g id="XMLID_34482_">
				<g id="XMLID_34483_">
					<path id="XMLID_34484_" class="st5" d="M65.8,159.1c-3.3-0.7-6.7-1.2-10.1-1.3c0.1-0.2,0.2-0.4,0.4-0.6c0.6,1.5,1.3,3,1.9,4.5
						c0.1,0.3,0.3,1.1,0.6,1.3c0.5,0.4,1.1,0,1.5-0.3c0.7-0.4,1.3-1.2,1.9-1.7c2.5-2.4,4.7-5.1,6.8-7.9c0.2-0.2,0.5-0.3,0.7,0
						c0.9,1.8,1.9,3.5,2.8,5.3c0.1,0.2,0,0.5-0.3,0.6c-2.4,0.4-4.8,0.3-7.1-0.2c0.1-0.2,0.3-0.4,0.4-0.6c2.8,3,5.6,6.1,8.4,9.1
						c0.1,0.1,0.2,0.3,0.1,0.5c-1.2,1.6-3,0.6-3.9-0.7c-1.9-2.5-3.6-5.3-5.4-7.9c0.2-0.1,0.5-0.3,0.7-0.4c1.2,2.8,2.9,5.1,5.3,7
						c-0.2,0.1-0.4,0.2-0.7,0.4c-0.6-2.1-1.4-4-2.6-5.8c0.2-0.1,0.5-0.3,0.7-0.4c1.2,2.7,2.8,5.1,4.8,7.2c0.1,0.1,0.1,0.3,0.1,0.5
						c-0.7,1.4-2.3,0.9-3-0.2c-0.7-1-1.2-2.4-1.7-3.6c-0.7-1.4-1.3-2.9-2-4.3c0.2-0.1,0.5-0.2,0.7-0.3c0.4,2.1,1,4.2,1.9,6.1
						c0.4,0.8,0.8,1.7,1.5,2.3c0.4,0.4,1.2,0.9,1.8,0.5c0.2-0.3,0.4-0.7,0.6-1c-0.2-0.2-0.4-0.5-0.6-0.7c-2.4-3.1-4.9-6.2-7.3-9.2
						c-0.3-0.4,0.3-0.9,0.6-0.5c2,2.5,4,5.1,6,7.6c0.5,0.6,1,1.3,1.5,1.9c0.2,0.3,0.8,0.8,0.8,1.1c0.1,0.5-0.4,1-0.7,1.3
						c-4.2,3.1-6.5-7.1-6.9-9.3c-0.1-0.4,0.5-0.7,0.7-0.3c0.7,1.4,1.3,2.9,2,4.3c0.3,0.5,0.5,1.1,0.8,1.6c0.2,0.4,0.3,0.7,0.5,1.1
						c0.2,0.7,0.8,1.1,1.8,1.1c0-0.3-1.3-1.5-1.5-1.8c-0.3-0.3-0.5-0.7-0.8-1c-0.9-1.3-1.6-2.7-2.2-4.1c-0.2-0.5,0.4-0.8,0.7-0.4
						c1.2,1.9,2.1,3.9,2.7,6c0.1,0.4-0.4,0.6-0.7,0.4c-2.4-1.9-4.2-4.3-5.4-7.1c-0.2-0.5,0.4-0.8,0.7-0.4c1.1,1.6,2.2,3.1,3.2,4.7
						c0.5,0.7,1,1.5,1.5,2.2c0.3,0.4,0.6,1,1,1.3c0.2,0.2,2,1.3,1.9,0.3c0-0.5-1.5-1.6-1.9-2.1c-0.6-0.7-1.3-1.4-1.9-2.1
						c-1.4-1.5-2.8-3-4.2-4.6c-0.3-0.3,0-0.7,0.4-0.6c2.2,0.5,4.5,0.5,6.7,0.2c-0.1,0.2-0.2,0.4-0.3,0.6c-0.9-1.8-1.9-3.5-2.8-5.3
						c0.2,0,0.5,0,0.7,0c-2.6,3.6-5.6,7.1-9,10c-0.7,0.6-1.6,1.2-2.3,0.3c-0.6-0.7-0.9-2-1.2-2.8c-0.5-1.1-1-2.3-1.5-3.4
						c-0.1-0.3,0-0.6,0.4-0.6c3.5,0.1,6.9,0.6,10.3,1.3C66.5,158.4,66.3,159.2,65.8,159.1L65.8,159.1z"/>
				</g>
			</g>
		</g>
		<g id="XMLID_34478_">
			<g id="XMLID_34479_">
				<path id="XMLID_34480_" class="st5" d="M89.8,167c-1.2,1.9-1.4,4.2-1.8,6.4c-0.4,2-1.2,3.8-2.5,5.4c-2.8,3.4-7.1,5-11.1,6.4
					c0.1-0.5,0.2-1,0.2-1.4c4.7,2.5,9.5,4.7,14.5,6.5c-0.3,0.3-0.7,0.6-1,0.9c-0.6-4.1-0.7-8.2-0.3-12.3c0.1-0.8,1.4-1.1,1.6-0.2
					c0.1,1,0.3,1.9,0.4,2.9c0.1,1-1.3,1.4-1.5,0.4c-0.6-2.3-0.6-4.7,0-7c0.2-0.9,1.5-0.6,1.5,0.2c0,4.5,0.1,9.1,0.1,13.6
					c0,0.8-1.2,1.1-1.5,0.4c-1.5-3.4-2.1-6.9-1.9-10.6c0.1-0.9,1.4-1.1,1.6-0.2c0.4,2,0.6,4,0.6,6.1c0,0.6-0.9,1.1-1.4,0.5
					c-1.2-1.5-1.7-3.2-1.6-5.1c0-0.7,1.2-1.1,1.5-0.4c0.6,1.6,0.9,3.2,0.9,4.9c0,0.5-0.7,1-1.2,0.6c-1-0.8-1.7-1.6-2.2-2.8
					c-0.4-0.9,0.9-1.7,1.4-0.8c1,1.9,2,3.8,2.9,5.7c0.3,0.6-0.2,1.4-0.9,1.1c-2.5-0.9-4.9-2-7.1-3.4c-0.9-0.5,0-1.9,0.8-1.3
					c1.8,1.1,3.5,2.2,5.3,3.3c0.9,0.5,0.1,1.8-0.8,1.3c-2.2-1.2-4.5-2.2-7-2.8c-1-0.3-0.5-1.7,0.4-1.5c2.1,0.4,4.1,1.1,6,2
					c-0.3,0.4-0.5,0.9-0.8,1.3c-1.2-0.6-2.5-1.3-3.7-1.9c-0.4-0.2-0.5-0.7-0.3-1.1c1.5-2.2,3.3-4,5.4-5.6c0.3,0.4,0.6,0.8,0.9,1.3
					c-1.6,0.7-3,1.7-4.1,3.1c-0.3-0.4-0.6-0.8-0.9-1.2c1.1-0.2,1.8-0.6,2.4-1.5c0.4,0.3,0.8,0.6,1.2,1c-1.7,1.3-3.4,2.6-5.1,3.9
					c0-0.4-0.1-0.8-0.1-1.2c2.5,2,5.3,3.3,8.4,4c-0.2,0.5-0.4,1-0.6,1.4c-1.4-1-2.9-2-4.3-3c-0.8-0.6,0-1.9,0.8-1.3
					c1.7,1.1,3.3,2.3,5,3.4c-0.3,0.4-0.5,0.9-0.8,1.3c-2.5-1.9-5.3-3.4-8.3-4.4c-0.6-0.2-0.8-1.2-0.2-1.4c1.3-0.5,2.5-0.7,3.9-0.5
					c0.8,0.1,1.1,1.4,0.2,1.6c-1.7,0.2-3.3,0.4-5,0.6c-0.8,0.1-1.4-1-0.6-1.5c2.2-1,4.4-2.1,6.6-3.1c0.1,0.5,0.2,1,0.4,1.5
					c-2.6,0.2-5.1,0.9-7.4,2.3c0-0.5,0-0.9,0-1.4c1.8,1.3,3.7,2.2,5.7,2.9c-0.2,0.5-0.4,1-0.6,1.4c-1.5-1.1-3.2-2-5-2.5
					c0.2-0.5,0.4-1,0.6-1.4c2.4,1.1,4.7,2.2,7.1,3.3c0.9,0.4,0.1,1.8-0.8,1.3c-2.4-1.1-4.7-2.2-7.1-3.3c-0.8-0.4-0.2-1.7,0.6-1.4
					c2,0.6,3.7,1.4,5.4,2.6c0.7,0.5,0.3,1.7-0.6,1.4c-2.2-0.7-4.2-1.7-6.1-3.1c-0.5-0.3-0.5-1,0-1.4c2.5-1.5,5.3-2.3,8.2-2.4
					c0.8,0,1,1.2,0.4,1.5c-2.2,1-4.4,2.1-6.6,3.1c-0.2-0.5-0.4-1-0.6-1.5c1.7-0.2,3.3-0.4,5-0.6c0.1,0.5,0.1,1,0.2,1.6
					c-1.1-0.1-2.1-0.1-3.1,0.3c-0.1-0.5-0.1-1-0.2-1.4c3.1,1,6,2.6,8.6,4.6c0.8,0.6,0,1.9-0.8,1.3c-1.7-1.1-3.3-2.3-5-3.4
					c0.3-0.4,0.5-0.9,0.8-1.3c1.4,1,2.9,2,4.3,3c0.7,0.5,0.3,1.6-0.6,1.4c-3.2-0.7-6.2-2.2-8.8-4.2c-0.4-0.3-0.6-0.9-0.1-1.2
					c1.7-1.3,3.4-2.6,5.1-3.9c0.6-0.5,1.8,0.2,1.2,1c-0.8,1.2-2,2-3.4,2.3c-0.6,0.1-1.3-0.6-0.9-1.2c1.3-1.6,2.8-2.8,4.7-3.7
					c0.7-0.3,1.7,0.7,0.9,1.3c-2,1.5-3.7,3.3-5.1,5.3c-0.1-0.4-0.2-0.7-0.3-1.1c1.2,0.6,2.5,1.3,3.7,1.9c0.9,0.5,0.1,1.8-0.8,1.3
					c-1.8-0.9-3.6-1.5-5.6-1.8c0.1-0.5,0.3-1,0.4-1.5c2.6,0.7,5,1.6,7.3,2.9c-0.3,0.4-0.5,0.9-0.8,1.3c-1.8-1.1-3.5-2.2-5.3-3.3
					c0.3-0.4,0.5-0.9,0.8-1.3c2.1,1.3,4.4,2.4,6.7,3.2c-0.3,0.4-0.6,0.8-0.9,1.1c-1-1.9-2-3.8-2.9-5.7c0.5-0.3,0.9-0.5,1.4-0.8
					c0.4,0.9,0.9,1.6,1.7,2.3c-0.4,0.2-0.8,0.4-1.2,0.6c0-1.4-0.2-2.8-0.7-4.1c0.5-0.1,1-0.2,1.5-0.4c-0.1,1.5,0.3,2.8,1.2,4
					c-0.5,0.2-0.9,0.3-1.4,0.5c0-1.9-0.2-3.8-0.6-5.7c0.5-0.1,1-0.1,1.6-0.2c-0.2,3.4,0.3,6.7,1.7,9.8c-0.5,0.1-1,0.2-1.5,0.4
					c0-4.5-0.1-9.1-0.1-13.6c0.5,0.1,1,0.2,1.5,0.2c-0.5,2.1-0.5,4.1,0,6.2c-0.5,0.1-1,0.2-1.5,0.4c-0.1-1-0.3-1.9-0.4-2.9
					c0.5-0.1,1-0.1,1.6-0.2c-0.3,4-0.3,7.9,0.3,11.9c0.1,0.5-0.4,1.2-1,0.9c-5.1-1.9-10.1-4.1-14.8-6.7c-0.7-0.4-0.4-1.2,0.2-1.4
					c3.9-1.4,8.4-3.1,10.8-6.6c2.3-3.3,1.5-7.5,3.6-10.9C89,165.3,90.3,166.2,89.8,167L89.8,167z"/>
			</g>
		</g>
	</g>
	<g id="XMLID_33680_">
		<g id="XMLID_33684_">
			<g id="XMLID_33721_">
				<g id="XMLID_33722_">
					<path id="XMLID_33723_" class="st6" d="M199.1,115.2c3.9,1.8,6.4,5.6,8.3,9.3c2,3.9,2.5,8.1,0.9,12.2
						c-3.1,8.3-12.5,13.1-20.9,14c-8.6,0.9-15-5.3-16.5-13.5c-1.6-8.8,2.7-17.5,10.1-22.3c3.9-2.5,8.6-4.1,13.2-2.9
						c4.5,1.2,8.2,4.3,11.6,7.3c0.5,0.4-0.1,1.3-0.6,0.8c-2.6-2.3-5.3-4.6-8.4-6.1c-3.9-1.8-7.8-1.8-11.7-0.1
						c-7.3,3.1-12.8,9.9-13.4,17.9c-0.6,7.9,3.9,17.2,12.6,17.9c7.5,0.6,16.8-3.6,21.1-9.7c2.6-3.7,3.6-8.3,2.2-12.7
						c-1.4-4.2-4.7-9.3-8.8-11.2C198.1,115.9,198.5,115,199.1,115.2L199.1,115.2z"/>
				</g>
			</g>
			<g id="XMLID_33718_">
				<g id="XMLID_33719_">
					<path id="XMLID_33720_" class="st6" d="M200.2,129c-0.2,0.3-0.5,0.7-0.7,1c-0.2-0.2-0.5-0.5-0.7-0.7c0.3-0.2,0.5-0.7,0.1-1
						c-0.3-0.2-0.8,0-0.9,0.3c0-0.1,0-0.3,0-0.4c0.2,0.4,0.8,0.3,0.9,0c0.3,0.2,0.5,0.4,0.8,0.6c-0.3,0.2-0.5,0.3-0.7,0.6
						c0,0,0,0.2,0,0c0,0,0-0.1-0.1-0.1c0,0,0.1,0,0.1,0c0,0,0,0,0,0c-0.1,0.1-0.1,0.2-0.1,0.4c-0.4-0.6,0.5-1.2,0.8-0.7
						c0.6,0.9-0.5,1.6-1.3,1.1c-0.4-0.2-0.5-0.7-0.4-1.2c0.2-0.5,0.6-0.8,1-1.1c0.4-0.3,1,0.1,0.8,0.6c-0.3,0.8-1.3,1.1-2,0.8
						c-0.4-0.1-0.7-0.4-0.8-0.8c-0.2-0.4,0.2-0.9,0.6-1.1c0.7-0.5,1.8-0.4,2.3,0.3c0.5,0.7,0.3,1.9-0.4,2.3
						c-0.5,0.3-1.1-0.2-0.7-0.7c0.2-0.3,0.5-0.7,0.7-1C199.7,127.8,200.6,128.4,200.2,129L200.2,129z"/>
				</g>
			</g>
			<g id="XMLID_33715_">
				<g id="XMLID_33716_">
					<path id="XMLID_33717_" class="st6" d="M182.9,130.9c0.1-0.1,0.1-0.2,0.1-0.1c0,0,0,0,0,0c0,0,0,0.1,0,0.1c0,0,0.2-0.1,0.2-0.3
						c0.2-0.5-0.4-1.1-0.7-1.4c0.2,0.1,0.3,0.1,0.5,0.2c-0.4,0.1-0.7,0.6-0.3,0.9c0.1,0.1,0.2,0.1,0.3,0.1c0.2,0,0.2-0.1,0.2,0
						c0,0.2-0.1,0-0.1,0c-0.5,0.4-1.2-0.4-0.7-0.8c0.8-0.7,2.3,0.4,1.7,1.3c-0.3,0.5-1.1,0.5-1.6,0.4c-0.6-0.2-1-0.6-1.1-1.2
						c-0.1-0.5,0.2-1.1,0.6-1.4c0.2-0.2,0.5-0.3,0.7-0.3c0.4-0.1,0.6,0.2,0.9,0.5c0.4,0.5,0.8,1.1,0.7,1.8c-0.1,0.6-0.5,1.1-1.1,1.2
						c-1.3,0.2-1.7-1.9-0.4-2.1C183.4,129.8,183.6,130.8,182.9,130.9L182.9,130.9z"/>
				</g>
			</g>
			<g id="XMLID_33712_">
				<g id="XMLID_33713_">
					<path id="XMLID_33714_" class="st6" d="M199.1,136.1c-3.5,4.9-10.7,6.1-15.6,2.5c-0.5-0.4,0.1-1.2,0.6-0.8
						c4.4,3.2,11,2.1,14.1-2.3C198.7,134.9,199.5,135.5,199.1,136.1L199.1,136.1z"/>
				</g>
			</g>
			<g id="XMLID_33709_">
				<g id="XMLID_33710_">
					<path id="XMLID_33711_" class="st6" d="M198.8,147.3c1.4,10.7,2.9,21.4,4.3,32.1c0.3,2.6,0.7,5.2,1,7.8c0.3,2.4,1.2,5.2,1,7.6
						c-0.2,2.8-5.3,3.1-7.4,3.4c-7.1,1-14.6-0.5-20.8-4c-3.2-1.8-6.1-4.1-8.5-6.8c-1.1-1.3-2.3-2.6-3-4.1c-0.8-1.5,0-2.5,0.7-3.9
						c5.1-9.9,10.1-19.8,14.1-30.2c0.2-0.6,1.2-0.2,1,0.4c-3,8-6.7,15.7-10.6,23.4c-0.9,1.8-1.9,3.6-2.8,5.4
						c-0.5,0.9-1.1,1.8-1.4,2.8c-0.5,1.3,0.1,2,0.9,3.1c2,2.9,4.5,5.3,7.3,7.3c5.8,4.1,13,6.3,20.1,6c1.6-0.1,3.1-0.3,4.7-0.6
						c0.9-0.2,1.8-0.4,2.7-0.7c1.6-0.5,2.1-1.5,1.9-3.1c-0.6-4.7-1.2-9.3-1.9-14c-1.4-10.6-2.8-21.1-4.2-31.7
						C197.7,146.8,198.7,146.6,198.8,147.3L198.8,147.3z"/>
				</g>
			</g>
			<g id="XMLID_33706_">
				<g id="XMLID_33707_">
					<path id="XMLID_33708_" class="st6" d="M188.3,198.3c-1.5,4.7-3.1,9.5-4.6,14.2c-0.2,0.5-0.6,1.4-0.6,1.9c0,1,0.6,2,1.3,2.7
						c0.6,0.7,1.3,1.3,1.9,2c1.1,1.4,2.3,3.1,2.8,4.9c0.5,2.1-1.1,3.8-3,2.3c-1.4-1.1-2.3-3.1-3.1-4.7c-1-2-1.8-4.2-2.3-6.4
						c-0.2-0.7,0.9-0.8,1-0.1c0.5,2,1.2,3.9,2.1,5.8c0.6,1.1,1.2,2.2,1.9,3.3c0.2,0.2,0.3,0.4,0.5,0.6c0.4,0.8,1.1,0.7,2.1-0.1
						c0.2-0.9-1.2-2.8-1.6-3.4c-0.4-0.6-0.9-1.2-1.3-1.8c-0.9-1-2.3-1.8-3-2.9c-0.5-0.8-0.3-1.6-0.1-2.5c0.5-1.8,1.2-3.6,1.7-5.4
						c1.2-3.6,2.3-7.2,3.5-10.7C187.5,197.3,188.5,197.7,188.3,198.3L188.3,198.3z"/>
				</g>
			</g>
			<g id="XMLID_33703_">
				<g id="XMLID_33704_">
					<path id="XMLID_33705_" class="st6" d="M175.8,192.1c-1.5,3.7-3.3,7.2-5.4,10.6c-1.1,1.8-2.3,3.5-3.5,5.2
						c-1,1.3-1.1,1.8-2.8,1.7c-1.7-0.1-3.7-1-5.3-0.2c-0.2,0.2-0.4,0.3-0.7,0.5c-0.9,0.6-0.8,1.2,0.3,1.7c1.1,1.1,0.7,0.8,1.7,0.7
						c0.9,0,1.9-0.5,2.7-0.7c1.2-0.3,2.3-0.6,3.5-0.9c0.4-0.1,0.7-0.2,1.1-0.3c-0.1-0.5-0.3-1-0.4-1.5c-0.1-0.2-0.3-0.3-0.4-0.4
						c-0.4-0.8-0.7-1.4-0.1-2.1c0.4-0.5,1.3,0.1,0.8,0.6c-0.7,0.9,2.3,2.3,1.3,3.8c-0.3,0.5-0.9,0.6-1.4,0.8
						c-1.5,0.5-3.1,0.8-4.7,1.2c-1.5,0.4-3.5,1.2-5,0.4c-1.1-0.6-1.5-1.8-1-3c0.5-1.1,1.8-1.9,3-2.1c0.9-0.1,1.9,0.1,2.8,0.3
						c1.8,0.3,2.7,0.2,3.8-1.4c3.4-4.7,6.3-9.9,8.6-15.3C175.1,191.1,176.1,191.4,175.8,192.1L175.8,192.1z"/>
				</g>
			</g>
			<g id="XMLID_33700_">
				<g id="XMLID_33701_">
					<path id="XMLID_33702_" class="st6" d="M204.9,119.1c0.5,2.2,1,4.4,1.5,6.6c-0.3,0-0.7,0-1,0c0.2-3.1-0.6-6.1-2.3-8.6
						c-0.7-1-1.9-2.7-2.7-0.9c-0.7,1.6-0.5,3.4,0.5,4.9c-0.3,0-0.6,0.1-0.9,0.1c0.9-1.6,0.7-3.3-0.6-4.6c0.3-0.1,0.6-0.2,0.9-0.3
						c-0.3,3.5,0.4,6.8,1.9,9.9c-0.3,0.1-0.7,0.2-1,0.3c-0.5-2.7-1.3-5.4-2.3-7.9c0.3,0,0.6,0,1,0c-0.7,1.3-1,2.8-0.7,4.3
						c0.2,0.7,0.4,1.3,0.8,1.9c0.8-0.1,1.6-0.3,2.3-0.4c0.6-0.7,0.2-2.6,0.1-3.4c-0.1-0.8,0-2.5-1.1-2.4c-0.6-0.2-0.8,0-0.6,0.7
						c0,0.5,0,1.1,0,1.6c0.1,1.7,0.7,3.3,1.6,4.7c-0.3,0-0.7,0.1-1,0.1c0.3-3.2-0.8-6.1-3.3-8.2c0.3-0.1,0.5-0.1,0.8-0.2
						c-0.9,2.3-0.8,4.7,0.3,7c-0.3,0-0.7,0.1-1,0.1c0.5-3.1,0-6.2-1.7-8.9c0.3,0,0.6-0.1,0.9-0.1c-0.7,2.2-0.5,4.3,0.4,6.4
						c-0.3,0.1-0.7,0.2-1,0.3c-0.1-2.3-0.4-4.5-1-6.7c0.3,0.1,0.6,0.2,0.8,0.3c-1.8,1.3-2.4,3.3-1.5,5.3c-0.3,0-0.6-0.1-0.9-0.1
						c1.5-2.3,1.8-5,0.8-7.6c0.3,0,0.6,0.1,0.9,0.1c-0.9,1.3-1.5,2.6-1.7,4.1c-0.1,0.6-0.1,1.1-0.1,1.7c0,0.4,0,0.8,0,1.1
						c-0.1,0.8,0.2,0.8,0.7,0.2c1.5-0.7,0.4-2.6-0.9-2.8c-0.8-0.1-1.8,0.2-2.3,0.8c-1.4,1.2-1.5,3.3-1.4,5c-0.2-0.1-0.5-0.3-0.7-0.4
						c2.7-1.5,4-4.4,3.5-7.4c0.2,0.1,0.5,0.3,0.7,0.4c-1.7,0.7-2.9,2-3.4,3.8c-0.4,1.5-0.5,4.2,1.7,2.2c2-1.7,0.3-4.4-2-4.6
						c-2.6-0.3-4.2,2.2-4.6,4.4c-0.2-0.2-0.4-0.4-0.6-0.6c3.2-0.7,5.4-3.6,5.2-6.8c0.2,0.1,0.5,0.3,0.7,0.4c-3.4,1.8-6,4.6-7.3,8.2
						c-0.2-0.2-0.4-0.5-0.6-0.7c1.4-0.3,2.7-0.8,3.8-1.6c0.6-0.5,2.6-2.2,2.6-3.2c-0.6-0.7-1.1-1.5-1.7-2.2
						c-0.4,0.1-0.7,0.2-1.1,0.2c-0.6,0.2-1.1,0.5-1.7,0.8c-1.4,0.8-2.4,2-3.2,3.4c-0.2-0.2-0.5-0.5-0.7-0.7c1.8-0.7,3.2-1.7,4.4-3.3
						c0.1,0.3,0.2,0.6,0.4,0.8c-2.3-0.2-4.3,0.6-5.8,2.3c-0.2-0.2-0.5-0.5-0.7-0.7c1.7-1.3,3.3-2.6,5-3.8c0.2,0.3,0.4,0.6,0.5,0.9
						c-1.3,0.6-2.7,1.1-4,1.7c-0.5,0.2-1-0.5-0.5-0.9c5-3.7,13.1-8.5,18.2-2.2c0.3,0.4,0,0.9-0.5,0.8c-3.6-0.4-7.1-0.8-10.7-1.1
						c-0.6-0.1-0.6-0.9,0-1c2-0.3,4-0.6,6-0.9c0.6-0.1,0.8,0.8,0.3,1c0.3,0,0.6-0.1,0.8-0.1c0.6-0.3,1,0.7,0.4,1
						c-0.7,0.3-1.8,0.6-2.2-0.3c-0.3-0.6,0-1.3,0.6-1.5c0.1,0.3,0.2,0.7,0.3,1c-2,0.3-4,0.6-6,0.9c0-0.3,0-0.7,0-1
						c3.6,0.4,7.1,0.8,10.7,1.1c-0.2,0.3-0.3,0.6-0.5,0.8c-4.7-5.8-12.3-1-16.8,2.4c-0.2-0.3-0.4-0.6-0.5-0.9c1.3-0.6,2.7-1.1,4-1.7
						c0.5-0.2,1,0.5,0.5,0.9c-1.7,1.3-3.3,2.6-5,3.8c-0.5,0.3-1.2-0.3-0.7-0.7c1.8-2,4.1-2.9,6.8-2.7c0.4,0,0.6,0.5,0.4,0.8
						c-1.3,1.7-2.8,2.9-4.8,3.6c-0.4,0.1-0.9-0.2-0.7-0.7c1.1-2,2.7-3.7,4.8-4.5c1.4-0.6,3.5-1.1,4.5,0.3c1.2,1.6-0.2,3.8-1.2,5
						c-1.5,1.8-3.5,2.8-5.8,3.3c-0.4,0.1-0.7-0.4-0.6-0.7c1.5-3.9,4.2-6.9,7.9-8.8c0.3-0.1,0.7,0.1,0.7,0.4c0.2,3.9-2.3,7.2-6.1,8
						c-0.3,0.1-0.6-0.3-0.6-0.6c0.7-3.8,5-7.5,8.5-4c2.4,2.4,0.2,6.7-3.1,5.9c-0.3-0.1-0.4-0.2-0.5-0.4c-0.9-3.3,0.8-6.8,4-8.1
						c0.3-0.1,0.7,0.1,0.7,0.4c0.6,3.5-1,6.8-4.1,8.5c-0.3,0.2-0.7-0.1-0.7-0.4c-0.2-3.1,1.3-8,5.5-6.8c3,0.9,2.2,5.7-0.9,5.3
						c-0.2,0-0.4-0.2-0.5-0.4c-0.6-3.2,0-6.3,1.9-9c0.2-0.3,0.8-0.3,0.9,0.1c1.1,2.9,0.8,6-1,8.6c-0.2,0.3-0.8,0.2-0.9-0.1
						c-1-2.4-0.3-5,1.8-6.5c0.4-0.3,0.7,0,0.8,0.3c0.6,2.2,0.9,4.4,1,6.7c0,0.6-0.7,0.8-1,0.3c-1.1-2.4-1.2-4.8-0.4-7.2
						c0.1-0.4,0.7-0.5,0.9-0.1c1.8,3,2.5,6.2,1.9,9.7c-0.1,0.5-0.8,0.6-1,0.1c-1.2-2.5-1.2-5.2-0.3-7.8c0.1-0.3,0.5-0.4,0.8-0.2
						c2.7,2.3,4.1,5.6,3.7,9.2c-0.1,0.6-0.8,0.6-1,0.1c-0.9-1.7-1.6-3.4-1.7-5.3c-0.1-1.1-0.2-2.9,0.8-3.6c2.6-1.7,3.2,4.5,3.2,5.7
						c0,1.7-1,5.1-3.4,3.7c-2.7-1.5-2.5-5.8-1.2-8.2c0.2-0.4,0.8-0.5,1,0c1.1,2.6,1.9,5.3,2.4,8.2c0.1,0.6-0.7,0.8-1,0.3
						c-1.6-3.3-2.3-6.8-2-10.4c0-0.5,0.6-0.6,0.9-0.3c1.5,1.6,1.8,3.7,0.8,5.6c-0.2,0.3-0.7,0.5-0.9,0.1c-1.7-2.6-1.3-5.8,0.9-7.9
						c0.1-0.1,0.5-0.2,0.6,0c3.4,3.1,5.2,7.4,4.9,12.1c0,0.6-0.9,0.5-1,0c-0.5-2.2-1-4.4-1.5-6.6
						C203.8,118.6,204.8,118.5,204.9,119.1L204.9,119.1z"/>
				</g>
			</g>
			<g id="XMLID_33697_">
				<g id="XMLID_33698_">
					<path id="XMLID_33699_" class="st6" d="M199.1,154.7c2.1,1.8,4.3,3.6,6.4,5.3c2.1,1.7,4.2,4.1,6.6,5.5c1.8,1.1,5.2-0.7,7.3-0.7
						c1.6,0,3.3,0.3,4.5,1.4c0.8,0.8,1.3,2.2,0.9,3.4c-0.6,1.5-2.2,1.9-3.7,1.9c-3.6,0.1-7-1.8-9.2-4.5c-0.4-0.5,0.4-1.2,0.8-0.7
						c2.1,2.5,5.5,4.5,8.9,4.1c2.6-0.3,2.8-2.9,0.6-4.1c-0.7-0.4-1.5-0.5-2.3-0.5c-2.1-0.2-3.8,0.7-5.8,1.1
						c-2.6,0.5-4.7-2.3-6.4-3.7c-3.1-2.6-6.2-5.2-9.3-7.7C198,155.1,198.6,154.3,199.1,154.7L199.1,154.7z"/>
				</g>
			</g>
			<g id="XMLID_33694_">
				<g id="XMLID_33695_">
					<path id="XMLID_33696_" class="st6" d="M178,156.5c-5.7-0.4-11.4,0.2-16.9,1.7c-0.2,0.1-0.5-0.1-0.6-0.3
						c-1.4-2.7-5.1-6.2-8-3.1c-1.7,1.7-0.5,3.9,1.6,4.4c2.3,0.5,4.4-0.9,6.1-2.1c0.6-0.4,1.2,0.4,0.7,0.8c-2.7,1.8-7.4,4.2-9.8,0.5
						c-1.6-2.4,0.5-5.2,3-5.7c1.5-0.4,3,0.2,4.3,1c0.8,0.6,1.5,1.3,2,2.1c0.8,1.1,0.6,1.3,1.9,1c5.3-1,10.4-1.7,15.8-1.3
						C178.8,155.5,178.7,156.6,178,156.5L178,156.5z"/>
				</g>
			</g>
			<g id="XMLID_33691_">
				<g id="XMLID_33692_">
					<path id="XMLID_33693_" class="st6" d="M204.9,118.2c9.2-5,20.2,2,19.7,12.4c0,0.5-0.8,0.6-1,0.1c-3.1-7.8-14.7-4.7-19.4-11.1
						c-0.3-0.4,0-0.9,0.5-0.8c4.9,0.1,9.6,1.1,14.2,2.9c0.6,0.3,0.2,1.2-0.4,1c-4.1-1.3-8.1-2.7-12.2-4c-0.6-0.2-0.3-1.1,0.3-1
						c4,0.8,8.1,1.5,12.1,2.3c-0.1,0.3-0.3,0.6-0.4,0.9c-0.7-0.7-1.4-1.2-2.3-1.6c-0.6-0.3-0.2-1.3,0.4-1c1,0.5,1.8,1,2.6,1.8
						c0.3,0.3,0.2,1-0.4,0.9c-4-0.8-8.1-1.5-12.1-2.3c0.1-0.3,0.2-0.7,0.3-1c4.1,1.3,8.1,2.7,12.2,4c-0.1,0.3-0.3,0.6-0.4,1
						c-4.5-1.8-9.1-2.7-13.9-2.8c0.2-0.3,0.3-0.6,0.5-0.8c4.8,6.4,16.3,3.1,19.6,11.3c-0.3,0-0.7,0.1-1,0.1
						c0.5-9.7-9.8-16-18.2-11.4C204.7,119.5,204.3,118.5,204.9,118.2L204.9,118.2z"/>
				</g>
			</g>
			<g id="XMLID_33688_">
				<g id="XMLID_33689_">
					<path id="XMLID_33690_" class="st6" d="M182.9,111.8c0.2,0.5,0.3,1.1,0.5,1.6c-0.3,0.1-0.6,0.3-1,0.4
						c-1.1-3.8-2.5-8.5-6.1-10.7c-4.6-2.9-11.3,0-15.5,2.4c0-0.3,0-0.6,0-1c1.7,0.6,3.4,1.3,4.8,2.4c1.7,1.3,2.9,3,4.4,4.4
						c3.2,2.9,7.6,3.1,11.6,3.2c-0.2,0.2-0.4,0.3-0.6,0.5c0-3.6-1.7-6.7-4.7-8.7c0.3-0.2,0.5-0.4,0.8-0.6c0.8,2.6,2.4,4.7,4.9,5.9
						c-0.2,0.2-0.5,0.5-0.7,0.7c-1.3-3.7-3.6-6.7-6.8-9c0.3-0.2,0.6-0.3,0.8-0.5c0.3,2.5,1.4,4.7,3.2,6.5c-0.3,0.1-0.6,0.3-0.9,0.4
						c-0.3-3-1.7-5.6-4.2-7.4c0.3-0.2,0.5-0.4,0.8-0.6c1.8,3.5,3.9,6.7,6.4,9.7c-0.3,0.2-0.5,0.4-0.8,0.7c-1.9-2.5-4.2-4.7-6.8-6.5
						c0.2-0.2,0.5-0.5,0.7-0.7c1.5,2.4,3.3,4.7,5.2,6.8c-0.3,0.2-0.5,0.4-0.8,0.7c-2.5-2.8-5.4-5.1-8.7-6.9c0.2-0.2,0.5-0.4,0.7-0.6
						c0.7,3.1,2.3,5.6,4.9,7.4c-0.2,0.2-0.5,0.5-0.7,0.7c-1.7-2.2-3.6-4.1-5.8-5.8c0.2-0.2,0.5-0.5,0.7-0.7c1.4,2.2,3.2,3.9,5.4,5.1
						c-0.2,0.2-0.5,0.5-0.7,0.7c-1.5-2.1-3.1-4-5.2-5.7c-0.3-0.3-0.2-0.9,0.2-0.9c0.5,0,1,0,1.5-0.1c0,0.3-0.1,0.7-0.1,1
						c-3-1.1-6-2-9.1-2.7c-0.4-0.1-0.7-0.8-0.1-1c4.1-1.2,8.2-1.1,12.2,0.4c0.5,0.2,0.4,0.8,0,1c-3,1.7-6.5,5.6-1.3,7.6
						c3.3,1.3,7.4,1.4,10.9,1.1c0.7,0,0.8,1,0.1,1c-2.8,0.2-5.6,0.1-8.3-0.4c-2.1-0.4-4.6-0.9-5.8-2.7c-2.3-3.2,1.5-6.2,4-7.6
						c0,0.3,0,0.6,0,1c-3.7-1.4-7.6-1.5-11.4-0.4c0-0.3-0.1-0.7-0.1-1c3.2,0.7,6.3,1.6,9.3,2.7c0.5,0.2,0.4,1-0.1,1
						c-0.5,0-1,0-1.5,0.1c0.1-0.3,0.2-0.6,0.2-0.9c2.1,1.7,3.8,3.6,5.3,5.8c0.3,0.5-0.2,1-0.7,0.7c-2.3-1.3-4.2-3.1-5.6-5.3
						c-0.3-0.5,0.2-1.2,0.7-0.7c2.2,1.8,4.2,3.8,6,6c0.4,0.5-0.2,1.1-0.7,0.7c-2.7-2-4.5-4.8-5.3-8.1c-0.1-0.4,0.4-0.7,0.7-0.6
						c3.5,1.9,6.5,4.3,9.1,7.2c0.5,0.5-0.4,1.1-0.8,0.7c-2-2.1-3.7-4.3-5.2-6.8c-0.3-0.5,0.2-1.1,0.7-0.7c2.7,1.8,5,4,7,6.6
						c0.4,0.5-0.4,1.2-0.8,0.7c-2.5-3.1-4.7-6.4-6.5-9.9c-0.2-0.5,0.4-0.9,0.8-0.6c2.7,2,4.3,4.8,4.6,8.1c0.1,0.5-0.6,0.8-0.9,0.4
						c-1.9-1.9-3-4.3-3.4-7c-0.1-0.5,0.5-0.7,0.8-0.5c3.3,2.3,5.8,5.5,7.1,9.4c0.1,0.4-0.2,0.9-0.7,0.7c-2.7-1.3-4.6-3.5-5.5-6.4
						c-0.1-0.5,0.3-0.9,0.8-0.6c3.3,2.2,5.2,5.7,5.1,9.7c0,0.3-0.3,0.5-0.6,0.5c-3.6-0.1-7.4-0.3-10.5-2.2c-1.6-1-2.8-2.5-4.1-3.9
						c-1.8-1.9-4-3.2-6.5-4c-0.5-0.2-0.4-0.8,0-1c4.4-2.5,11.1-5.2,16-2.6c4.2,2.2,5.8,7.3,7.1,11.5c0.2,0.6-0.8,1.1-1,0.4
						c-0.2-0.5-0.3-1.1-0.5-1.6C181.7,111.6,182.7,111.2,182.9,111.8L182.9,111.8z"/>
				</g>
			</g>
			<g id="XMLID_33685_">
				<g id="XMLID_33686_">
					<path id="XMLID_33687_" class="st6" d="M220,119.8c1.5,2.2,2.9,4.4,4.4,6.6c0.4,0.6-0.4,1.2-0.8,0.7c-2.8-3.2-6.1-5.6-9.9-7.4
						c-0.5-0.2-0.3-1.1,0.3-1c3,0.7,5.6,2,7.8,4.1c0.3,0.3,0.3,0.9-0.2,0.9c-5,0.2-9.9-0.4-14.7-1.7c-0.6-0.2-0.3-1.2,0.4-1
						c4.6,1.3,9.4,1.9,14.2,1.7c-0.1,0.3-0.2,0.6-0.2,0.9c-2.1-2-4.5-3.3-7.3-3.9c0.1-0.3,0.2-0.7,0.3-1c4,1.8,7.4,4.4,10.3,7.7
						c-0.3,0.2-0.5,0.4-0.8,0.7c-1.5-2.2-2.9-4.4-4.4-6.6C218.8,119.8,219.7,119.2,220,119.8L220,119.8z"/>
				</g>
			</g>
		</g>
	</g>
</g>
</svg>
